<?xml version="1.0" standalone="no"?><!DOCTYPE svg PUBLIC "-//W3C//DTD SVG 1.1//EN" "http://www.w3.org/Graphics/SVG/1.1/DTD/svg11.dtd"><svg class="icon" width="200px" height="200.00px" viewBox="0 0 1024 1024" version="1.1" xmlns="http://www.w3.org/2000/svg"><path d="M830.332 371.036a56.98 56.98 0 0 1 3.832 20.574v80.308c0 4.282-1.204 8.48-3.472 12.112l-118.116 189.04a48 48 0 0 1-40.712 22.568h-45.72v-324.6h-57.148v381.748h134.546c16.554 0 31.94-8.528 40.712-22.568l143.584-229.802a22.854 22.854 0 0 0 3.472-12.112v-117.266h-60.978z" fill="#FFDF74" /><path d="M598.714 313.886v475.472h134.546c16.554 0 31.94-8.528 40.71-22.568l143.584-229.802a22.856 22.856 0 0 0 3.474-12.112v-153.842c0-31.562-25.586-57.148-57.148-57.148H598.714z m261.694 206.718l-118.116 189.04a48.008 48.008 0 0 1-40.71 22.568h-45.72V371.036h150.87c31.562 0 57.148 25.586 57.148 57.148v80.308a22.84 22.84 0 0 1-3.472 12.112z" fill="#FFF4C1" /><path d="M771.302 663.216l-29.008 46.426a48 48 0 0 1-40.712 22.568h-45.72V371.036h150.87c6.286 0 12.33 1.03 17.986 2.906v-60.054H598.714V789.36h134.546a47.984 47.984 0 0 0 38.04-18.762v-107.382z" fill="#FCE575" /><path d="M698.994 103.964H137.26c-18.938 0-34.288 15.352-34.288 34.288v260.886a91.44 91.44 0 0 0 5.244 30.518l48.176 136.062V837.36h523.476V565.72h2.196l46.368-136.574a91.448 91.448 0 0 0 4.854-29.396V138.252c-0.004-18.938-15.356-34.288-34.292-34.288z" fill="#FFF4C1" /><path d="M654.108 328.936h-9.52c-15.878-88.346-93.082-155.402-186-155.402s-170.122 67.056-186 155.402h-25.372c-14.518 0-26.288 11.77-26.288 26.288v18.098c0 14.518 11.77 26.288 26.288 26.288h25.978c17.216 86.672 93.664 152.014 185.394 152.014s168.178-65.342 185.394-152.014h10.128c14.52 0 26.288-11.77 26.288-26.288v-18.098c-0.002-14.518-11.772-26.288-26.29-26.288z" fill="#FFD59A" /><path d="M364.63 399.61h-25.978c-14.518 0-26.286-11.77-26.286-26.288v-18.098c0-14.518 11.768-26.288 26.286-26.288h25.372c13.184-73.35 68.656-131.982 140.282-149.786a189.256 189.256 0 0 0-45.718-5.616c-92.918 0-170.122 67.056-186 155.402h-25.372c-14.518 0-26.288 11.77-26.288 26.288v18.098c0 14.518 11.77 26.288 26.288 26.288h25.978c17.216 86.672 93.664 152.014 185.394 152.014 15.772 0 31.074-1.974 45.718-5.614-70.532-17.528-125.42-74.63-139.676-146.4z" fill="#FFC34C" /><path d="M222.51 429.656a91.438 91.438 0 0 1-5.242-30.518V138.252c0-18.936 15.352-34.288 34.288-34.288H137.26c-18.938 0-34.288 15.352-34.288 34.288V399.14c0 10.396 1.774 20.718 5.242 30.518l48.176 136.062v271.642h114.296V565.72l-48.176-136.064z" fill="#FCE575" /><path d="M623.864 920.036H212.388c-30.928 0-56-25.072-56-56v-56.392h523.476v56.392c0 30.928-25.072 56-56 56z" fill="#FFA730" /><path d="M202.108 635.648v161.502c0 22.21 15.352 40.212 34.288 40.212h363.462c18.938 0 34.288-18.004 34.288-40.212v-161.502H202.108z" fill="#FFD59A" /><path d="M675.616 401.132H160.846c-6.814 0-11.838 6.692-9.584 13.122l0.05 0.142 50.794 143.468v77.782h432.04v-79.452L649.302 520l35.834-105.546 0.11-0.326c2.12-6.414-2.872-12.996-9.63-12.996z" fill="#A56021" /><path d="M587.436 801.36a12 12 0 0 1-12-12V580.578a12 12 0 0 1 24 0V789.36a12 12 0 0 1-12 12z" fill="#FFF4C1" /><path d="M586.14 538.482a12 12 0 0 1-11.292-16.066l36.094-100.336a12 12 0 0 1 22.584 8.126l-36.094 100.336a12 12 0 0 1-11.292 7.94z" fill="#BF6C0D" /><path d="M622.236 362.808a12 12 0 0 1-12-12V166.064a12 12 0 0 1 24 0v184.744a12 12 0 0 1-12 12z" fill="#FCF9DE" /><path d="M367.99 287.79a11.98 11.98 0 0 1-8.792-3.828l-40.384-43.434a12 12 0 0 1 17.576-16.342l40.384 43.434a12 12 0 0 1-8.784 20.17zM454.822 210.47c-0.3 0-0.6-0.01-0.904-0.034l-73.062-5.44a12 12 0 0 1-11.076-12.858c0.492-6.612 6.272-11.584 12.858-11.076l73.062 5.44a12 12 0 0 1-0.878 23.968zM450.29 306.838a12 12 0 0 1-7.294-21.534l53.338-40.766a12 12 0 0 1 14.574 19.07l-53.338 40.766a11.96 11.96 0 0 1-7.28 2.464zM563.972 230.478a11.92 11.92 0 0 1-5.306-1.244l-58.244-28.778a12 12 0 0 1 10.63-21.516l58.244 28.778a12 12 0 0 1-5.324 22.76z" fill="#BF6C0D" /><path d="M294.688 461.194m-35.052 0a35.052 35.052 0 1 0 70.104 0 35.052 35.052 0 1 0-70.104 0Z" fill="#8C4C17" /><path d="M316.404 689.678m-35.052 0a35.052 35.052 0 1 0 70.104 0 35.052 35.052 0 1 0-70.104 0Z" fill="#FFC34C" /><path d="M386.506 760.212m-35.052 0a35.052 35.052 0 1 0 70.104 0 35.052 35.052 0 1 0-70.104 0Z" fill="#FFC34C" /><path d="M151.262 414.254l0.05 0.142 50.794 143.468v77.782h68.578V565.72l-48.176-136.062a91.41 91.41 0 0 1-5.2-28.524H160.846c-6.812-0.002-11.838 6.692-9.584 13.12z" fill="#8C4C17" /><path d="M202.108 635.648v161.502c0 22.21 15.352 40.214 34.288 40.214h34.288V635.648h-68.576z" fill="#FFC34C" /></svg>