<?xml version="1.0" standalone="no"?><!DOCTYPE svg PUBLIC "-//W3C//DTD SVG 1.1//EN" "http://www.w3.org/Graphics/SVG/1.1/DTD/svg11.dtd"><svg class="icon" width="200px" height="200.00px" viewBox="0 0 1024 1024" version="1.1" xmlns="http://www.w3.org/2000/svg"><path d="M931.21 512c0-45.822-25.53-85.68-63.14-106.13 37.61-20.45 63.14-60.308 63.14-106.13 0-66.672-54.05-120.722-120.722-120.722-45.822 0-85.68 25.53-106.13 63.14-20.45-37.61-60.308-63.14-106.13-63.14s-85.68 25.53-106.13 63.14c-20.45-37.61-60.308-63.14-106.13-63.14s-85.68 25.53-106.13 63.14c-20.45-37.61-60.308-63.14-106.13-63.14-66.672 0-120.722 54.05-120.722 120.722 0 45.822 25.53 85.68 63.14 106.13C78.522 426.32 52.992 466.178 52.992 512s25.53 85.68 63.14 106.13c-37.61 20.45-63.14 60.308-63.14 106.13 0 66.674 54.05 120.722 120.722 120.722 45.822 0 85.68-25.528 106.13-63.14 20.45 37.612 60.308 63.14 106.13 63.14s85.68-25.528 106.13-63.14c20.45 37.612 60.308 63.14 106.13 63.14s85.68-25.528 106.13-63.14c20.45 37.612 60.308 63.14 106.13 63.14 66.672 0 120.722-54.048 120.722-120.722 0-45.822-25.53-85.68-63.14-106.13 37.604-20.45 63.134-60.308 63.134-106.13z m-675.246 156.984c-21.492 0-38.914-17.424-38.914-38.914 0-21.492 17.422-38.914 38.914-38.914s38.914 17.422 38.914 38.914c0 21.49-17.424 38.914-38.914 38.914z m2.21-226.41c-21.492 0-38.914-17.422-38.914-38.914s17.422-38.914 38.914-38.914 38.914 17.424 38.914 38.914c0 21.492-17.422 38.914-38.914 38.914z m236.58 226.41c-21.492 0-38.914-17.424-38.914-38.914 0-21.492 17.422-38.914 38.914-38.914s38.914 17.422 38.914 38.914c0 21.49-17.422 38.914-38.914 38.914z m2.212-226.41c-21.492 0-38.914-17.422-38.914-38.914s17.424-38.914 38.914-38.914c21.492 0 38.914 17.424 38.914 38.914 0 21.492-17.424 38.914-38.914 38.914z m236.578 226.41c-21.492 0-38.914-17.424-38.914-38.914 0-21.492 17.422-38.914 38.914-38.914s38.914 17.422 38.914 38.914c0 21.49-17.422 38.914-38.914 38.914z m2.212-226.41c-21.492 0-38.914-17.422-38.914-38.914s17.424-38.914 38.914-38.914 38.914 17.424 38.914 38.914c0 21.492-17.422 38.914-38.914 38.914z" fill="#BF6C0D" /><path d="M971.008 512c0-45.822-25.53-85.68-63.14-106.13 37.61-20.45 63.14-60.308 63.14-106.13 0-66.672-54.05-120.722-120.722-120.722-45.822 0-85.68 25.53-106.13 63.14-20.45-37.61-60.308-63.14-106.13-63.14s-85.68 25.53-106.13 63.14c-20.45-37.61-60.308-63.14-106.13-63.14s-85.68 25.53-106.13 63.14c-20.45-37.61-60.308-63.14-106.13-63.14-66.672 0-120.722 54.05-120.722 120.722 0 45.822 25.53 85.68 63.14 106.13C118.32 426.32 92.79 466.178 92.79 512s25.53 85.68 63.14 106.13c-37.61 20.45-63.14 60.308-63.14 106.13 0 66.674 54.05 120.722 120.722 120.722 45.822 0 85.68-25.528 106.13-63.14 20.45 37.612 60.308 63.14 106.13 63.14s85.68-25.528 106.13-63.14c20.45 37.612 60.308 63.14 106.13 63.14s85.68-25.528 106.13-63.14c20.45 37.612 60.308 63.14 106.13 63.14 66.672 0 120.722-54.048 120.722-120.722 0-45.822-25.53-85.68-63.14-106.13 37.604-20.45 63.134-60.308 63.134-106.13z m-675.246 156.984c-21.492 0-38.914-17.424-38.914-38.914 0-21.492 17.422-38.914 38.914-38.914s38.914 17.422 38.914 38.914c0 21.49-17.422 38.914-38.914 38.914z m2.21-226.41c-21.492 0-38.914-17.422-38.914-38.914s17.422-38.914 38.914-38.914 38.914 17.424 38.914 38.914c0 21.492-17.422 38.914-38.914 38.914z m236.58 226.41c-21.492 0-38.914-17.424-38.914-38.914 0-21.492 17.422-38.914 38.914-38.914s38.914 17.422 38.914 38.914c0 21.49-17.422 38.914-38.914 38.914z m2.212-226.41c-21.492 0-38.914-17.422-38.914-38.914s17.424-38.914 38.914-38.914c21.492 0 38.914 17.424 38.914 38.914 0 21.492-17.422 38.914-38.914 38.914z m236.578 226.41c-21.492 0-38.914-17.424-38.914-38.914 0-21.492 17.422-38.914 38.914-38.914s38.914 17.422 38.914 38.914c0 21.49-17.422 38.914-38.914 38.914z m2.212-226.41c-21.492 0-38.914-17.422-38.914-38.914s17.424-38.914 38.914-38.914 38.914 17.424 38.914 38.914c0 21.492-17.422 38.914-38.914 38.914z" fill="#F9BB32" /><path d="M172.386 697.726c0-45.822 25.53-85.68 63.14-106.13-37.61-20.45-63.14-60.308-63.14-106.13s25.53-85.68 63.14-106.13c-37.61-20.45-63.14-60.308-63.14-106.13 0-38.024 17.598-71.924 45.074-94.052-1.316-0.042-2.62-0.138-3.948-0.138-66.672 0-120.722 54.05-120.722 120.722 0 45.822 25.53 85.68 63.14 106.13C118.32 426.32 92.79 466.178 92.79 512s25.53 85.68 63.14 106.13c-37.61 20.45-63.14 60.308-63.14 106.13 0 66.674 54.05 120.722 120.722 120.722a120.212 120.212 0 0 0 75.642-26.632c-64.838-2.092-116.768-55.276-116.768-120.624z" fill="#DB9C2E" /><path d="M925.914 340.488a12.002 12.002 0 0 1-11.718-14.636c5.962-26.496 2.972-47.066-8.888-61.138-22.072-26.188-68.506-24.118-68.98-24.11a12.006 12.006 0 0 1-12.608-11.348 11.992 11.992 0 0 1 11.314-12.618c2.382-0.136 58.674-2.794 88.538 32.504 17.026 20.126 21.75 47.708 14.038 81.978a12.002 12.002 0 0 1-11.696 9.368z" fill="#FFC34C" /><path d="M255.964 512m-30.668 0a30.668 30.668 0 1 0 61.336 0 30.668 30.668 0 1 0-61.336 0Z" fill="#DB9C2E" /><path d="M411.1 718.426m-30.668 0a30.668 30.668 0 1 0 61.336 0 30.668 30.668 0 1 0-61.336 0Z" fill="#DB9C2E" /></svg>