<?xml version="1.0" standalone="no"?><!DOCTYPE svg PUBLIC "-//W3C//DTD SVG 1.1//EN" "http://www.w3.org/Graphics/SVG/1.1/DTD/svg11.dtd"><svg class="icon" width="200px" height="200.00px" viewBox="0 0 1024 1024" version="1.1" xmlns="http://www.w3.org/2000/svg"><path d="M922.554 401.928c-45.35-52.968-139.212-47.02-209.648 13.286-70.436 60.306-90.772 152.132-45.422 205.1s139.212 47.02 209.648-13.286c70.436-60.306 90.772-152.132 45.422-205.1z m-73.256 172.59c-31.44 26.918-70.192 41.44-103.664 38.846-13.564-1.052-32.492-5.528-45.642-20.884-17.504-20.444-14.676-48.064-11.434-62.71 6.49-29.306 25.51-59.21 52.18-82.046 31.438-26.918 70.19-41.44 103.662-38.846 13.564 1.052 32.494 5.528 45.642 20.884 29.424 34.364 10.766 100.654-40.744 144.756z" fill="#FFF4C1" /><path d="M786.408 608.85c-13.896 3.904-27.736 5.524-40.774 4.512-13.564-1.052-32.492-5.528-45.642-20.884-17.504-20.444-14.676-48.064-11.434-62.71 6.49-29.306 25.51-59.21 52.18-82.046 31.438-26.918 70.19-41.44 103.662-38.846 8.604 0.666 19.362 2.724 29.438 8.048a342.03 342.03 0 0 0 2.068-37.42v-7.88c-48.316-15.314-111.834-0.222-163.004 43.588-70.436 60.306-90.772 152.132-45.422 205.1 16.772 19.59 40.19 31.098 66.596 34.8a340.218 340.218 0 0 0 52.332-46.262z" fill="#FCE575" /><path d="M477.248 718.166h-0.014c-187.036 0-338.66-151.624-338.66-338.66v-18.674c0-11.046 8.954-20 20-20h637.334c11.046 0 20 8.954 20 20v18.674c0 187.038-151.622 338.66-338.66 338.66z" fill="#FFF4C1" /><path d="M577.248 698.166h-0.014c-187.036 0-338.66-151.624-338.66-338.66v-18.674h-80c-11.046 0-20 8.954-20 20v18.674c0 187.036 151.624 338.66 338.66 338.66h0.014c40.74 0 79.798-7.198 115.976-20.386-5.296 0.248-10.618 0.386-15.976 0.386z" fill="#FCE575" /><path d="M477.236 678.166c-164.24 0-297.94-133.258-298.658-297.334h597.328c-0.718 164.074-134.418 297.334-298.658 297.334h-0.012z" fill="#A56021" /><path d="M590.574 619.038a12.002 12.002 0 0 1-3.89-23.356c97.462-33.41 126.834-163.622 127.12-164.932a12.012 12.012 0 0 1 14.276-9.176 12 12 0 0 1 9.174 14.278c-1.282 5.894-32.668 144.784-142.788 182.534a12.032 12.032 0 0 1-3.892 0.652z" fill="#BF6C0D" /><path d="M365.9 531.166m-30 0a30 30 0 1 0 60 0 30 30 0 1 0-60 0Z" fill="#8C4C17" /><path d="M443.722 592.348m-30 0a30 30 0 1 0 60 0 30 30 0 1 0-60 0Z" fill="#8C4C17" /><path d="M762.04 802.834H192.444c-16.568 0-30-13.432-30-30v-42H792.04v42c0 16.568-13.432 30-30 30z" fill="#FFD551" /><path d="M242.444 778.834h548.992c0.394-1.938 0.602-3.944 0.602-6v-42H162.444v42c0 16.568 13.432 30 30 30h50v-24z" fill="#FFC34C" /><path d="M813.826 756.834H132.594a35.996 35.996 0 0 1-29.47-15.324l-24.378-34.748c-3.72-5.302 0.072-12.594 6.548-12.594h781.762c6.856 0 10.536 8.058 6.046 13.24l-32.07 37.004a36.012 36.012 0 0 1-27.206 12.422z" fill="#FFD551" /><path d="M795.078 732.166h-136.762a12 12 0 0 1 0-24h136.762a12 12 0 0 1 0 24z" fill="#FFDF74" /><path d="M229.3 321.166c-24.716 0-45.858 18.036-49.448 42.49a120.332 120.332 0 0 0-1.274 17.51h597.328c0-5.948-0.434-11.794-1.274-17.51-3.59-24.454-24.732-42.49-49.448-42.49H229.3z" fill="#FFD59A" /><path d="M461.106 677.726c-123.476-45.072-213.33-159.964-221.842-296.892H178.578c0.694 158.666 125.754 288.508 282.528 296.892z" fill="#8C4C17" /><path d="M238.576 340.834l0.708-19.666s-27.216-4.5-49.75 19.666c-4.972 6.496-8.422 14.25-9.682 22.826a120.604 120.604 0 0 0-1.274 17.508h60.706a343.788 343.788 0 0 1-0.708-21.66v-18.674z" fill="#FFC34C" /><path d="M206.926 321.166c0-55.228 44.772-100 100-100h333.592c55.228 0 100 44.772 100 100 0 15.74-12.76 28.5-28.5 28.5H235.426c-15.74 0-28.5-12.76-28.5-28.5z" fill="#FFEACF" /><path d="M286.926 321.166c0-55.228 44.772-100 100-100h-80c-55.228 0-100 44.772-100 100 0 15.74 12.76 28.5 28.5 28.5h80c-15.74 0-28.5-12.76-28.5-28.5z" fill="#FFD59A" /></svg>