<?xml version="1.0" standalone="no"?><!DOCTYPE svg PUBLIC "-//W3C//DTD SVG 1.1//EN" "http://www.w3.org/Graphics/SVG/1.1/DTD/svg11.dtd"><svg class="icon" width="200px" height="200.00px" viewBox="0 0 1024 1024" version="1.1" xmlns="http://www.w3.org/2000/svg"><path d="M695.36 46.444h-194.888c-9.388 0-16.704 8.038-15.924 17.392 0.256 3.064 0.388 6.162 0.388 9.292 0 41.864-23.028 78.332-57.098 97.476a15.654 15.654 0 0 0-7.922 12.366c-4.866 60.66-55.616 108.374-117.528 108.374-4.88 0-9.69-0.302-14.412-0.886-9.548-1.18-17.968 6.24-17.968 15.86v586.65c0 16.588 13.448 30.036 30.036 30.036H695.36c16.588 0 30.036-13.448 30.036-30.036V76.48c0-16.588-13.448-30.036-30.036-30.036z" fill="#BF6C0D" /><path d="M709.36 64.444h-194.888c-9.388 0-16.704 8.038-15.924 17.392 0.256 3.064 0.388 6.162 0.388 9.292 0 41.864-23.028 78.332-57.098 97.476a15.654 15.654 0 0 0-7.922 12.366c-4.866 60.66-55.616 108.374-117.528 108.374-4.88 0-9.69-0.302-14.412-0.886-9.548-1.18-17.968 6.24-17.968 15.86v586.65c0 16.588 13.448 30.036 30.036 30.036H709.36c16.588 0 30.036-13.448 30.036-30.036V94.48c0-16.588-13.448-30.036-30.036-30.036z" fill="#A56021" /><path d="M366.828 910.968V324.318c0-9.62 8.422-17.04 17.968-15.86 4.722 0.584 9.53 0.886 14.412 0.886 61.912 0 112.662-47.714 117.528-108.374a15.66 15.66 0 0 1 7.922-12.366c34.07-19.146 57.098-55.614 57.098-97.476 0-3.13-0.132-6.228-0.388-9.292-0.782-9.356 6.536-17.392 15.924-17.392h-80c-9.388 0-16.704 8.038-15.924 17.392 0.256 3.064 0.388 6.162 0.388 9.292 0 41.864-23.028 78.332-57.098 97.476a15.66 15.66 0 0 0-7.922 12.366c-4.866 60.66-55.616 108.374-117.528 108.374-4.88 0-9.688-0.302-14.412-0.886-9.546-1.18-17.968 6.24-17.968 15.86v586.65c0 16.588 13.448 30.038 30.036 30.038h80c-16.588-0.002-30.036-13.45-30.036-30.038z" fill="#8C4C17" /><path d="M602.71 190.688V120.218a16 16 0 0 1 16-16h70.47a16 16 0 0 1 16 16v70.47a16 16 0 0 1-16 16h-70.47a16 16 0 0 1-16-16zM602.71 327.372v-70.47a16 16 0 0 1 16-16h70.47a16 16 0 0 1 16 16v70.47a16 16 0 0 1-16 16h-70.47a16 16 0 0 1-16-16zM460.466 469.616v-70.47a16 16 0 0 1 16-16h70.47a16 16 0 0 1 16 16v70.47a16 16 0 0 1-16 16h-70.47a16 16 0 0 1-16-16zM602.71 469.616v-70.47a16 16 0 0 1 16-16h70.47a16 16 0 0 1 16 16v70.47a16 16 0 0 1-16 16h-70.47a16 16 0 0 1-16-16zM467.342 327.372V263.78a16 16 0 0 1 16-16h63.594a16 16 0 0 1 16 16v63.594a16 16 0 0 1-16 16h-63.594a16.002 16.002 0 0 1-16-16.002zM323.78 469.616v-70.47a16 16 0 0 1 16-16h70.47a16 16 0 0 1 16 16v70.47a16 16 0 0 1-16 16H339.78a16 16 0 0 1-16-16zM323.78 606.302v-70.47a16 16 0 0 1 16-16h70.47a16 16 0 0 1 16 16v70.47a16 16 0 0 1-16 16H339.78a16 16 0 0 1-16-16zM546.918 104.218h-48.75c-3.31 28.358-17.234 53.468-37.7 71.258v15.192a16.02 16.02 0 0 0 16.02 16.02h70.432a16.02 16.02 0 0 0 16.02-16.02V120.238a16.026 16.026 0 0 0-16.022-16.02zM339.8 343.374h70.43a16.02 16.02 0 0 0 16.02-16.02v-70.43a15.956 15.956 0 0 0-5-11.608c-18.508 35.946-54.918 61.138-97.47 63.774v18.264a16.02 16.02 0 0 0 16.02 16.02z" fill="#BF6C0D" /><path d="M255.12 608.81l499.25-270.084c9.742-5.27 21.578 1.784 21.578 12.86v598.558c0 15.14-12.274 27.414-27.414 27.414H274.87c-15.14 0-27.414-12.274-27.414-27.414V621.668a14.618 14.618 0 0 1 7.664-12.858z" fill="#FF624B" /><path d="M346.53 797.336a165.47 80.098 0 1 0 330.94 0 165.47 80.098 0 1 0-330.94 0Z" fill="#FFD59A" /><path d="M733.62 940.67a12 12 0 0 1-12-12v-170.086a12 12 0 0 1 24 0v170.086a12 12 0 0 1-12 12z" fill="#FF9079" /><path d="M327.456 950.142V621.668a14.62 14.62 0 0 1 7.664-12.86l440.828-238.478v-18.746c0-11.076-11.836-18.13-21.578-12.86L255.12 608.808a14.62 14.62 0 0 0-7.664 12.86v328.474c0 15.14 12.274 27.414 27.414 27.414h80c-15.14 0-27.414-12.274-27.414-27.414z" fill="#FF4B34" /><path d="M776.544 351.572v50.384L247.456 687.858v-66.186a14.618 14.618 0 0 1 7.67-12.862l499.846-270.102c9.742-5.264 21.572 1.79 21.572 12.864z" fill="#FFD59A" /><path d="M776.544 400.156l-314.61 172.27 229.984 76.93c10.048 3.362 20.84-2.5 23.492-12.758l61.134-236.442z" fill="#FF4B34" /><path d="M776.544 327.052l-314.61 172.27 229.984 76.93c10.048 3.362 20.84-2.5 23.492-12.758l61.134-236.442z" fill="#FFEACF" /><path d="M733.62 735.666a12 12 0 0 1-12-12v-43a12 12 0 0 1 24 0v43a12 12 0 0 1-12 12z" fill="#FF9079" /><path d="M391.574 680.666m-30 0a30 30 0 1 0 60 0 30 30 0 1 0-60 0Z" fill="#FF4B34" /><path d="M472.06 622.302m-30 0a30 30 0 1 0 60 0 30 30 0 1 0-60 0Z" fill="#FF4B34" /><path d="M426.25 256.924a15.958 15.958 0 0 0-4.998-11.606 118.348 118.348 0 0 1-30.574 37.64l-0.144 0.116a118.028 118.028 0 0 1-18.56 12.336l-0.236 0.128c-1.072 0.572-2.154 1.126-3.248 1.666l-0.198 0.096a117.576 117.576 0 0 1-10.092 4.382l-0.592 0.22a116.212 116.212 0 0 1-10.962 3.49c-3.474 0.92-7.01 1.684-10.602 2.286l-0.698 0.12a114.216 114.216 0 0 1-4.056 0.58 118.1 118.1 0 0 1-7.24 0.69l-0.27 0.022v18.264a16.02 16.02 0 0 0 16.02 16.02h24.208v-19.054c0-9.62 8.422-17.04 17.968-15.86 4.722 0.584 9.53 0.886 14.412 0.886 10.322 0 20.324-1.354 29.864-3.844v-48.578zM562.936 120.238a16.02 16.02 0 0 0-16.02-16.02h-48.75c-0.01 0.09-0.028 0.178-0.038 0.268a114.716 114.716 0 0 1-0.71 5.038 111.678 111.678 0 0 1-2.138 9.996l-0.132 0.504c-0.86 3.22-1.86 6.384-2.994 9.484l-0.202 0.54a112.704 112.704 0 0 1-1.676 4.246l-0.144 0.352a112.238 112.238 0 0 1-2.034 4.526l-0.118 0.24a111.584 111.584 0 0 1-2.024 3.996l-0.394 0.74a111.744 111.744 0 0 1-4.848 8.132c-0.17 0.26-0.344 0.516-0.518 0.776a115.446 115.446 0 0 1-2.262 3.264c-0.16 0.224-0.318 0.45-0.48 0.672-0.918 1.256-1.86 2.494-2.828 3.708-0.134 0.168-0.274 0.334-0.41 0.502a109.886 109.886 0 0 1-2.558 3.054c-0.252 0.29-0.502 0.58-0.758 0.868a112.94 112.94 0 0 1-2.922 3.186l-0.186 0.2a112.55 112.55 0 0 1-3.248 3.234c-0.278 0.266-0.56 0.528-0.84 0.792-0.892 0.838-1.796 1.662-2.716 2.47-0.176 0.156-0.344 0.32-0.522 0.474v15.192a16.02 16.02 0 0 0 16.02 16.02h36.83c0.244-1.892 0.446-3.798 0.6-5.718a15.66 15.66 0 0 1 7.922-12.366 112.344 112.344 0 0 0 41.098-39.854V120.238z" fill="#A56021" /><path d="M678.918 226.218h-48.75c-3.31 28.358-17.234 53.468-37.7 71.258v15.192a16.02 16.02 0 0 0 16.02 16.02h70.432a16.02 16.02 0 0 0 16.02-16.02v-70.43a16.026 16.026 0 0 0-16.022-16.02z" fill="#BF6C0D" /><path d="M499.968 247.78h-16.626a16 16 0 0 0-16 16v21.804a118.47 118.47 0 0 0 32.626-37.804z" fill="#A56021" /></svg>