<?xml version="1.0" standalone="no"?><!DOCTYPE svg PUBLIC "-//W3C//DTD SVG 1.1//EN" "http://www.w3.org/Graphics/SVG/1.1/DTD/svg11.dtd"><svg class="icon" width="200px" height="200.00px" viewBox="0 0 1024 1024" version="1.1" xmlns="http://www.w3.org/2000/svg"><path d="M478.16 352.764h56.646v572.594H478.16z" fill="#FCF9DE" /><path d="M478.16 352.764h34v572.594h-34z" fill="#FFF4C1" /><path d="M840.808 55.444H183.192c-11.046 0-20 8.954-20 20v47.33c0 184.936 149.92 334.856 334.856 334.856h27.902c184.936 0 334.856-149.92 334.856-334.856V75.444c0.002-11.046-8.952-20-19.998-20z" fill="#FCF9DE" /><path d="M618.05 437.63c-184.936 0-334.856-149.92-334.856-334.856V55.444h-100c-11.046 0-20 8.954-20 20v47.33c0 184.936 149.92 334.856 334.856 334.856h27.902c40.116 0 78.58-7.064 114.23-20h-22.132z" fill="#FFF4C1" /><path d="M683.352 968.556c8.796 0 12.914-10.914 6.296-16.706-42.228-36.968-106.108-60.546-177.648-60.546s-135.42 23.58-177.65 60.546c-6.618 5.794-2.5 16.706 6.296 16.706h342.706z" fill="#FCF9DE" /><path d="M203.192 122.772c0 18.854 1.8 37.292 5.198 55.17h607.218a295.22 295.22 0 0 0 5.198-55.17v-7.33c0-11.046-8.954-20-20-20H223.192c-11.046 0-20 8.954-20 20v7.33z" fill="#FFEACF" /><path d="M208.39 177.944c25.908 136.304 145.928 239.688 289.66 239.688h27.9c143.73 0 263.752-103.382 289.66-239.688h-607.22z" fill="#A56021" /><path d="M283.192 115.444c0-11.046 8.954-20 20-20h-80c-11.046 0-20 8.954-20 20v7.33c0 18.854 1.8 37.292 5.198 55.17h80a295.22 295.22 0 0 1-5.198-55.17v-7.33z" fill="#FFD59A" /><path d="M288.39 177.944h-80c25.908 136.304 145.928 239.688 289.66 239.688h27.9c8.778 0 17.466-0.392 26.05-1.146-131.988-11.612-239.284-110.562-263.61-238.542z" fill="#8C4C17" /><path d="M414.35 951.848c34.176-29.916 82.532-51.058 137.65-58.038a318.266 318.266 0 0 0-40-2.508c-71.54 0-135.42 23.58-177.65 60.546-6.618 5.794-2.5 16.708 6.296 16.708h80c-8.794 0-12.914-10.914-6.296-16.708zM610.988 373.856a12 12 0 0 1-11.15-7.562 11.996 11.996 0 0 1 6.704-15.59c31.996-12.75 38.374-23.064 38.434-23.166-0.318 0.54-0.39 0.846-0.39 0.846l22.27 8.944c-1.702 4.238-10.442 19.336-51.426 35.67a11.934 11.934 0 0 1-4.442 0.858z" fill="#FFF4C1" /><path d="M437.584 256.538m-30 0a30 30 0 1 0 60 0 30 30 0 1 0-60 0Z" fill="#BF6C0D" /><path d="M495.16 352.764m-30 0a30 30 0 1 0 60 0 30 30 0 1 0-60 0Z" fill="#BF6C0D" /><path d="M555.16 218.32m-30 0a30 30 0 1 0 60 0 30 30 0 1 0-60 0Z" fill="#BF6C0D" /><path d="M698.424 309.186a12.002 12.002 0 0 1-7.232-21.586c0.572-0.434 57.5-44.364 80.484-134.672a11.996 11.996 0 0 1 14.588-8.67 12 12 0 0 1 8.67 14.588c-25.176 98.926-86.714 145.986-89.322 147.94a11.93 11.93 0 0 1-7.188 2.4z" fill="#FFF4C1" /></svg>