<?xml version="1.0" standalone="no"?><!DOCTYPE svg PUBLIC "-//W3C//DTD SVG 1.1//EN" "http://www.w3.org/Graphics/SVG/1.1/DTD/svg11.dtd"><svg class="icon" width="200px" height="200.00px" viewBox="0 0 1024 1024" version="1.1" xmlns="http://www.w3.org/2000/svg"><path d="M768.486 850.046l106.904-319.068c4.252-12.688-5.19-25.808-18.572-25.808H167.182c-13.382 0-22.822 13.12-18.572 25.808l106.904 319.068c8.056 24.044 31.462 40.358 57.9 40.358h397.172c26.438 0 49.844-16.316 57.9-40.358z" fill="#FFD551" /><path d="M423.454 856.254a15.006 15.006 0 0 1-14.028-9.686l-70.284-185.376a15 15 0 0 1 8.708-19.344 15.004 15.004 0 0 1 19.344 8.708l70.284 185.376a15 15 0 0 1-14.024 20.322zM641.882 856.254a15.002 15.002 0 0 1-14.024-20.322l70.284-185.376a15 15 0 0 1 28.052 10.636l-70.284 185.376a15.008 15.008 0 0 1-14.028 9.686zM529.638 858.744a15 15 0 0 1-15-15v-199.366c0-8.284 6.714-15 15-15s15 6.716 15 15v199.366a15 15 0 0 1-15 15z" fill="#FFC34C" /><path d="M237.228 505.168H167.182c-13.382 0-22.822 13.12-18.572 25.808l24.222 72.292 82.682 246.776c8.056 24.044 31.464 40.36 57.902 40.36h97.262c-26.438 0-49.844-16.316-57.9-40.36l-78.624-234.658c-2.008-5.992 2.674-12.118 9.264-12.118h561.712c3.598-0.002 6.782-2.222 7.878-5.494l22.38-66.798c4.252-12.688-5.19-25.808-18.572-25.808H237.228z" fill="#FFC34C" /><path d="M805.042 555.354c43.508 0 80.824-31.71 87.1-74.762a226.05 226.05 0 0 0 2.364-32.636c0-161.26-171.254-291.988-382.504-291.988-211.252 0-382.506 130.728-382.506 291.988 0 11.032 0.802 21.922 2.364 32.636 6.274 43.052 43.592 74.762 87.1 74.762h586.082z" fill="#A56021" /><path d="M251.858 480.592a226.05 226.05 0 0 1-2.364-32.636c0-145.676 139.758-266.422 322.504-288.402a502.304 502.304 0 0 0-60-3.586c-211.252 0-382.506 130.728-382.506 291.988 0 11.032 0.802 21.922 2.364 32.636 6.274 43.052 43.592 74.762 87.1 74.762h120c-43.504 0-80.822-31.708-87.098-74.762z" fill="#8C4C17" /><path d="M304.4 235.316a19.934 19.934 0 0 1-14.176-5.892c-7.792-7.83-7.762-20.492 0.068-28.284l52.52-52.266c7.83-7.792 20.492-7.762 28.284 0.07 7.792 7.83 7.762 20.492-0.068 28.284l-52.52 52.266a19.942 19.942 0 0 1-14.108 5.822zM566.678 175.97c-0.216 0-0.434-0.002-0.652-0.01l-74.056-2.374c-11.042-0.354-19.704-9.59-19.35-20.63 0.356-11.04 9.58-19.716 20.63-19.348l74.056 2.374c11.042 0.354 19.704 9.59 19.35 20.63-0.348 10.82-9.228 19.358-19.978 19.358zM234.062 325.714a20.006 20.006 0 0 1-18.27-11.838c-4.51-10.084 0.01-21.914 10.092-26.422l67.638-30.252a20 20 0 1 1 16.332 36.512l-67.638 30.252a19.928 19.928 0 0 1-8.154 1.748z" fill="#FF9079" /><path d="M457.308 354.916a19.936 19.936 0 0 1-14.288-6.002l-51.856-52.926c-7.73-7.89-7.602-20.552 0.29-28.284 7.888-7.732 20.554-7.6 28.282 0.29l51.856 52.926c7.73 7.89 7.602 20.552-0.29 28.284a19.94 19.94 0 0 1-13.994 5.712zM516.422 298.59a19.91 19.91 0 0 1-11.984-4c-8.836-6.628-10.626-19.164-4-28l44.458-59.274c6.628-8.834 19.164-10.626 28-4 8.836 6.628 10.626 19.164 4 28l-44.458 59.274a19.974 19.974 0 0 1-16.016 8zM693.412 355.78c-1.268 0-2.552-0.122-3.844-0.374l-72.728-14.162c-10.842-2.11-17.92-12.612-15.808-23.454 2.112-10.842 12.612-17.93 23.454-15.808l72.728 14.162c10.842 2.11 17.92 12.612 15.808 23.454-1.86 9.552-10.23 16.182-19.61 16.182zM731.818 265.968a19.892 19.892 0 0 1-10.558-3.03l-62.882-39.19c-9.376-5.842-12.238-18.178-6.394-27.552 5.84-9.372 18.176-12.236 27.55-6.396l62.882 39.19c9.376 5.842 12.238 18.178 6.394 27.552a19.98 19.98 0 0 1-16.992 9.426z" fill="#8C4C17" /><path d="M475.308 342.916a19.936 19.936 0 0 1-14.288-6.002l-51.856-52.926c-7.73-7.89-7.602-20.552 0.29-28.284 7.888-7.732 20.554-7.6 28.282 0.29l51.856 52.926c7.73 7.89 7.602 20.552-0.29 28.284a19.94 19.94 0 0 1-13.994 5.712zM544.422 294.59a19.91 19.91 0 0 1-11.984-4c-8.836-6.628-10.626-19.164-4-28l44.458-59.274c6.628-8.834 19.164-10.626 28-4 8.836 6.628 10.626 19.164 4 28l-44.458 59.274a19.974 19.974 0 0 1-16.016 8zM713.412 339.78c-1.268 0-2.552-0.122-3.844-0.374l-72.728-14.162c-10.842-2.11-17.92-12.612-15.808-23.454 2.112-10.842 12.612-17.93 23.454-15.808l72.728 14.162c10.842 2.11 17.92 12.612 15.808 23.454-1.86 9.552-10.23 16.182-19.61 16.182zM751.818 251.968a19.892 19.892 0 0 1-10.558-3.03l-62.882-39.19c-9.376-5.842-12.238-18.178-6.394-27.552 5.84-9.372 18.176-12.236 27.55-6.396l62.882 39.19c9.376 5.842 12.238 18.178 6.394 27.552a19.98 19.98 0 0 1-16.992 9.426z" fill="#FF9079" /><path d="M852.012 502.002a12.002 12.002 0 0 1-11.714-14.662c18.366-80.808-32.492-135.626-33.008-136.17a11.996 11.996 0 0 1 0.456-16.964 11.998 11.998 0 0 1 16.962 0.454c2.466 2.602 60.172 64.814 38.992 158a12.002 12.002 0 0 1-11.688 9.342z" fill="#BF6C0D" /><path d="M321.694 423.856m-30 0a30 30 0 1 0 60 0 30 30 0 1 0-60 0Z" fill="#8C4C17" /><path d="M409.566 490m-30 0a30 30 0 1 0 60 0 30 30 0 1 0-60 0Z" fill="#8C4C17" /></svg>