<?xml version="1.0" standalone="no"?><!DOCTYPE svg PUBLIC "-//W3C//DTD SVG 1.1//EN" "http://www.w3.org/Graphics/SVG/1.1/DTD/svg11.dtd"><svg class="icon" width="200px" height="200.00px" viewBox="0 0 1024 1024" version="1.1" xmlns="http://www.w3.org/2000/svg"><path d="M455.75 871.812c-14.92 0-27.014-12.094-27.014-27.014V61.68c0-14.92 12.094-27.014 27.014-27.014s27.014 12.094 27.014 27.014v783.118c0 14.918-12.096 27.014-27.014 27.014z" fill="#FF9079" /><path d="M457.172 844.798V61.68c0-9.696 5.124-18.172 12.796-22.938a26.848 26.848 0 0 0-14.218-4.076c-14.92 0-27.014 12.094-27.014 27.014v783.118c0 14.92 12.094 27.014 27.014 27.014 5.224 0 10.084-1.508 14.218-4.076-7.672-4.766-12.796-13.244-12.796-22.938z" fill="#FF624B" /><path d="M729.028 596.07v144.338c0 17.962-18.238 32.522-40.736 32.522h-71.29v-176.86h-61.104v237.152h193.498c22.498 0 40.736-14.56 40.736-32.522V596.07h-61.104z" fill="#FFC34C" /><path d="M770.25 534.524h-193.498v336.612h193.498c22.498 0 40.736-14.56 40.736-32.522V567.048c0-17.962-18.238-32.524-40.736-32.524z m-20.368 243.798c0 17.962-18.238 32.522-40.736 32.522h-71.29V594.816h71.29c22.498 0 40.736 14.56 40.736 32.522v150.984z" fill="#FFF4C1" /><path d="M751.202 534.524h-174.45v336.612h174.45V534.524z m-42.058 276.322h-71.29V594.816h71.29c22.498 0 40.736 14.562 40.736 32.524v150.984c0.002 17.96-18.238 32.522-40.736 32.522z" fill="#FFDF74" /><path d="M644.822 436.774h-7.14c6.504-3.004 11.028-9.568 11.028-17.202v-13.528c0-8.174-5.184-15.12-12.436-17.782 7.252-2.662 12.436-9.606 12.436-17.782v-13.528a18.96 18.96 0 0 0-18.958-18.958H258.636a18.96 18.96 0 0 0-18.958 18.958v13.528c0 8.176 5.184 15.12 12.436 17.782-7.252 2.662-12.436 9.608-12.436 17.782v13.528c0 7.634 4.524 14.198 11.028 17.202h-7.142c-16.874 0-30.552 12.77-30.552 28.52V932.288c0 31.502 27.358 57.042 61.104 57.042h340.15c33.748 0 61.104-25.54 61.104-57.042V465.296c0.004-15.752-13.676-28.522-30.548-28.522z" fill="#FFF4C1" /><path d="M288.842 932.292V465.296c0-15.752 13.68-28.52 30.552-28.52h7.142c-6.504-3.004-11.028-9.568-11.028-17.202v-13.528c0-8.174 5.184-15.12 12.436-17.782-7.252-2.662-12.436-9.606-12.436-17.782v-13.528a18.96 18.96 0 0 1 18.958-18.958h-75.828a18.96 18.96 0 0 0-18.958 18.958v13.528c0 8.176 5.184 15.12 12.436 17.782-7.252 2.662-12.436 9.608-12.436 17.782v13.528c0 7.634 4.524 14.198 11.028 17.202h-7.142c-16.874 0-30.552 12.77-30.552 28.52V932.29c0 31.502 27.358 57.042 61.104 57.042h75.828c-33.746 0.002-61.104-25.538-61.104-57.04z" fill="#FFDF74" /><path d="M618.504 484.168a9.886 9.886 0 0 1-9.886-9.886v-13.696H279.772v13.696a9.886 9.886 0 0 1-9.886 9.886 9.48 9.48 0 0 0-9.478 9.478v438.646c0 4.564 5.632 9.648 13.712 9.648h340.15c8.08 0 13.712-5.086 13.712-9.648V493.646a9.48 9.48 0 0 0-9.478-9.478z" fill="#BF6C0D" /><path d="M355.6 334.036h253.016v126.55H355.6z" fill="#FFB74B" /><path d="M279.772 474.282a9.886 9.886 0 0 1-9.886 9.886 9.48 9.48 0 0 0-9.478 9.478v438.646c0 4.564 5.632 9.648 13.712 9.648h75.828c-8.08 0-13.712-5.086-13.712-9.648V493.646a9.48 9.48 0 0 1 9.478-9.478 9.886 9.886 0 0 0 9.886-9.886v-13.696h-75.828v13.696z" fill="#A56021" /><path d="M559.702 291.616a74.274 74.274 0 0 0 3.074-21.136c0-45.602-41.468-82.572-92.622-82.572s-92.622 36.97-92.622 82.572c0 0.52 0.034 1.032 0.044 1.548h-0.044c-10.632 0-20.834 1.618-30.344 4.558-12.562-13.494-31.514-22.088-52.72-22.088-37.822 0-68.482 27.334-68.482 61.052 0 4.088 0.46 8.08 1.32 11.946v79.272c0 15.59 13.504 28.23 30.164 28.23 16.658 0 30.164-12.64 30.164-28.23v-30.47c0.18 0.016 0.362 0.022 0.542 0.036 10.704 35.056 46.644 60.84 89.356 60.84 29.84 0 56.364-12.592 73.304-32.128 14.48 28.766 46.864 48.814 84.522 48.814 51.154 0 92.622-36.968 92.622-82.572 0.002-38.092-28.938-70.14-68.278-79.672z" fill="#FFD59A" /><path d="M245.784 356.89a54.9 54.9 0 0 1-1.32-11.946c0-33.718 30.66-61.052 68.482-61.052 21.206 0 40.158 8.596 52.72 22.088a102.644 102.644 0 0 1 30.344-4.558h0.044c-0.01-0.516-0.044-1.028-0.044-1.548 0-45.602 41.468-82.572 92.622-82.572 27.92 0 52.934 11.028 69.916 28.448-11.788-33.52-46.902-57.842-88.392-57.842-51.154 0-92.622 36.97-92.622 82.572 0 0.52 0.034 1.032 0.044 1.548h-0.044c-10.632 0-20.834 1.618-30.344 4.558-12.562-13.494-31.514-22.088-52.72-22.088-37.822 0-68.482 27.334-68.482 61.052 0 4.088 0.46 8.08 1.32 11.946v79.272c0 11.712 7.622 21.756 18.476 26.028v-75.906z" fill="#FFC34C" /><path d="M419.766 503.496h-2.094c-16.08 0-29.116-13.036-29.116-29.116v-96.714h60.326v96.714c0.002 16.08-13.034 29.116-29.116 29.116zM354.916 371.042h-79.482v154.594c0 19.912 17.792 36.052 39.74 36.052s39.74-16.142 39.74-36.052v-154.594z" fill="#FFD59A" /><path d="M597.306 593.91a12 12 0 0 1-12-12v-40.442a12 12 0 0 1 24 0v40.442a12 12 0 0 1-12 12zM597.306 898.486a12 12 0 0 1-12-12v-259.08a12 12 0 0 1 24 0v259.08a12 12 0 0 1-12 12z" fill="#FFA730" /><path d="M383.01 799.688m-28.436 0a28.436 28.436 0 1 0 56.872 0 28.436 28.436 0 1 0-56.872 0Z" fill="#A56021" /><path d="M438.716 880.596m-28.436 0a28.436 28.436 0 1 0 56.872 0 28.436 28.436 0 1 0-56.872 0Z" fill="#A56021" /><path d="M785.316 764.676a12 12 0 0 1-12-12v-125.268a12 12 0 0 1 24 0v125.268a12 12 0 0 1-12 12z" fill="#FCF9DE" /><path d="M304.798 337.996m-28.436 0a28.436 28.436 0 1 0 56.872 0 28.436 28.436 0 1 0-56.872 0Z" fill="#FFC34C" /></svg>