<?xml version="1.0" standalone="no"?><!DOCTYPE svg PUBLIC "-//W3C//DTD SVG 1.1//EN" "http://www.w3.org/Graphics/SVG/1.1/DTD/svg11.dtd"><svg class="icon" width="200px" height="200.00px" viewBox="0 0 1024 1024" version="1.1" xmlns="http://www.w3.org/2000/svg"><path d="M795.768 271.926H228.232v-21.314c0-77.32 62.68-140 140-140h287.536c77.32 0 140 62.68 140 140v21.314z" fill="#FFEACF" /><path d="M361.08 110.612c-73.37 0-132.848 59.478-132.848 132.848v28.468h75.912V243.46c0-73.37 59.478-132.848 132.848-132.848H361.08z" fill="#FFD59A" /><path d="M184.152 250.102v410.692c0 19.274 4.262 38.372 12.558 56.272l65.526 141.39a25.034 25.034 0 0 1 2.354 10.552v29.202c0 8.386 7.894 15.182 17.632 15.182h459.554c9.738 0 17.632-6.798 17.632-15.182v-29.202c0-3.614 0.8-7.194 2.354-10.55l65.526-141.39c8.296-17.9 12.558-36.998 12.558-56.272V250.102c0-10.482-9.868-18.978-22.04-18.978H206.192c-12.172-0.002-22.04 8.496-22.04 18.978z" fill="#FFF4C1" /><path d="M378.46 898.206v-29.202c0-3.614-0.798-7.194-2.354-10.55l-65.526-141.39c-8.296-17.9-12.558-36.998-12.558-56.272V250.102c0-10.482 9.868-18.978 22.04-18.978h-113.87c-12.172 0-22.04 8.496-22.04 18.978v410.692c0 19.274 4.262 38.372 12.558 56.272l65.526 141.39a25.032 25.032 0 0 1 2.354 10.55v29.202c0 8.386 7.894 15.182 17.632 15.182h113.87c-9.738-0.002-17.632-6.8-17.632-15.184z" fill="#FCE575" /><path d="M228.232 404.774v256.02c0 14.52 3.168 28.718 9.418 42.204l65.524 141.386c3.646 7.866 5.494 16.15 5.494 24.622v6.428h406.66v-6.428c0-8.472 1.848-16.758 5.494-24.618l65.524-141.388c6.25-13.486 9.418-27.686 9.418-42.206v-256.02H228.232z" fill="#BF6C0D" /><path d="M376.104 858.454l-65.526-141.39c-8.296-17.9-12.558-36.998-12.558-56.272V404.774h-69.788v256.02c0 14.52 3.168 28.718 9.42 42.204l65.524 141.386c3.646 7.866 5.494 16.15 5.494 24.622v6.428h69.79v-6.428c0-3.616-0.8-7.196-2.356-10.552z" fill="#A56021" /><path d="M228.232 231.122h567.536v173.65H228.232z" fill="#FFD59A" /><path d="M738.834 622.698a12 12 0 0 1-12-12v-154.664a12 12 0 0 1 24 0v154.664a12 12 0 0 1-12 12zM681.318 818.768a12 12 0 0 1-10.88-17.048l47.532-102.568 9.138-41.99c1.408-6.478 7.804-10.57 14.278-9.176a12 12 0 0 1 9.174 14.278l-9.418 43.286c-0.188 0.86-0.468 1.698-0.838 2.494l-48.088 103.768a12.008 12.008 0 0 1-10.898 6.956z" fill="#BF6C0D" /><path d="M391.27 726.762m-29.068 0a29.068 29.068 0 1 0 58.136 0 29.068 29.068 0 1 0-58.136 0Z" fill="#A56021" /><path d="M469.77 804.246m-29.068 0a29.068 29.068 0 1 0 58.136 0 29.068 29.068 0 1 0-58.136 0Z" fill="#A56021" /><path d="M390.702 175.016m-29.068 0a29.068 29.068 0 1 0 58.136 0 29.068 29.068 0 1 0-58.136 0Z" fill="#FFD59A" /><path d="M228.232 231.122h56.934v173.65h-56.934z" fill="#FFB74B" /></svg>