<?xml version="1.0" standalone="no"?><!DOCTYPE svg PUBLIC "-//W3C//DTD SVG 1.1//EN" "http://www.w3.org/Graphics/SVG/1.1/DTD/svg11.dtd"><svg class="icon" width="200px" height="200.00px" viewBox="0 0 1024 1024" version="1.1" xmlns="http://www.w3.org/2000/svg"><path d="M98.992 455.718v319.516h0.424c4.362 45.638 42.796 81.334 89.576 81.334h629.334c46.782 0 85.214-35.696 89.576-81.334h0.424V455.718H98.992z" fill="#FFB74B" /><path d="M107.658 415.374c3.46-8.502 14.418-19.288 25.22-28.446 6.95-6.578 15.244-12.922 24.762-18.994l0.27-0.186-0.004 0.018c68.136-43.318 198.67-72.624 348.54-72.624 220.246 0 398.788 63.278 398.788 141.334 0 78.056-178.542 141.334-398.788 141.334-220.244 0-398.788-63.278-398.788-141.334 0-6.018 1.068-11.948 3.128-17.768a169.404 169.404 0 0 1-3.128-3.334z" fill="#FFD59A" /><path d="M279.658 442.476c0-72.334 153.332-131.966 351.082-140.322-39.118-4.544-80.89-7.01-124.292-7.01-149.868 0-280.404 29.304-348.54 72.624l0.004-0.018-0.27 0.186c-9.518 6.07-17.812 12.416-24.762 18.994-10.802 9.16-21.76 19.944-25.22 28.446a169.404 169.404 0 0 0 3.128 3.334c-2.06 5.82-3.128 11.75-3.128 17.768 0 78.056 178.544 141.334 398.788 141.334 16.148 0 32.062-0.35 47.708-1.01-159.38-18.516-274.498-71.652-274.498-134.326z" fill="#FFC34C" /><path d="M199.002 328.412a310.49 112.512 0 1 0 620.98 0 310.49 112.512 0 1 0-620.98 0Z" fill="#FFD59A" /><path d="M589.492 420.922c-171.478 0-310.49-50.374-310.49-112.51 0-32.082 37.056-61.026 96.502-81.522-104.4 18.126-176.502 56.772-176.502 101.522 0 62.138 139.01 112.51 310.49 112.51 82.946 0 158.292-11.788 213.988-30.99-40.566 7.044-86.004 10.99-133.988 10.99z" fill="#FFC34C" /><path d="M289.642 244.83a214.016 77.552 0 1 0 428.032 0 214.016 77.552 0 1 0-428.032 0Z" fill="#FFD59A" /><path d="M603.658 302.382c-118.198 0-214.016-34.722-214.016-77.552 0-21.734 24.682-41.376 64.43-55.456-94.286 8.106-164.43 38.81-164.43 75.456 0 42.83 95.818 77.552 214.016 77.552 58.222 0 111.002-8.428 149.586-22.096a580.11 580.11 0 0 1-49.586 2.096z" fill="#FFC34C" /><path d="M199.416 775.236h-0.424V455.718h-100v319.516h0.424c4.362 45.638 42.796 81.334 89.576 81.334h100c-46.78 0-85.214-35.694-89.576-81.332zM807.902 775.236h0.424V455.718h100v319.516h-0.424c-4.362 45.638-42.796 81.334-89.576 81.334h-100c46.78 0 85.214-35.694 89.576-81.332z" fill="#FFA730" /><path d="M887.418 394.476c-58.168 53.376-206.726 91.334-380.844 91.334S183.902 447.852 125.732 394.476c-16.94 15.544-26.24 32.394-26.24 50 0 78.056 182.258 141.334 407.084 141.334s407.082-63.278 407.082-141.334c0-17.606-9.298-34.454-26.24-50z" fill="#E58D23" /><path d="M813.238 534.07c-26.636 6.746-92.274 22.64-114.13 21.24-3.828-0.246-8.528-0.152-13.752 0.174-7.058 0.2-19.192 0.772-33.38 2.414v-0.004s-41.536 1.63-58.424 14.188l0.002 0.002c-29.704 17.528-49.022 49.878-49.102 85.936l-0.216 98.194c-0.122 55.228 44.55 100.098 99.778 100.22l89.93 0.198c49.704 0.11 90.088-40.096 90.198-89.802l0.52-235.71 0.004-1.826c0.002 0.004-4.114 1.95-11.428 4.776z" fill="#BF6C0D" /><path d="M860.704 514.504c-74.896 34.124-154.974 40.236-175.176 41.262a754.84 754.84 0 0 1-21.306 4.638c-46.404 9.39-79.664 50.362-79.768 97.706l-0.216 98.194c-0.122 55.228 44.55 100.098 99.778 100.22l89.93 0.198c49.704 0.11 90.088-40.096 90.198-89.802l0.562-254.294c-1.334 0.628-2.664 1.268-4.002 1.878z" fill="#FFA730" /><path d="M628.394 656.374v98.194c0 55.228 44.772 100 100 100h89.93c49.706 0 90-40.294 90-90V453.718h-3.002c-15.578 44.722-90.958 82.994-197.376 104.772-46.382 9.494-79.552 50.54-79.552 97.884z" fill="#FFB74B" /><path d="M282.79 462.544c-71.02-16.262-126.508-40.036-157.058-68.068-16.94 15.544-26.24 32.394-26.24 50 0 78.056 182.258 141.334 407.084 141.334 30.928 0 61.044-1.204 90-3.472-165.01-12.932-292.048-60.648-313.786-119.794z" fill="#BF6C0D" /><path d="M628.394 658.374v98.194c0 55.228 44.772 100 100 100h89.93c49.706 0 90-40.294 90-90V455.718h-3.002c-15.578 44.722-90.958 82.994-197.376 104.772-46.382 9.494-79.552 50.54-79.552 97.884z" fill="#FFB74B" /><path d="M771.912 451.022s-35.586 5.008-35.586 39.12H665.66l20.666-30.062 85.586-9.058z" fill="#FFD59A" /><path d="M686.326 649.092c27.614 0 50-22.386 50-50v-186.466h-100v186.466c0 27.614 22.386 50 50 50z" fill="#FFD59A" /><path d="M705.676 599.308a12 12 0 0 1-12-12v-97.166a12 12 0 0 1 24 0v97.166a12 12 0 0 1-12 12z" fill="#FFEACF" /><path d="M509.492 364.294c-134.35 0-248.758-30.922-292.01-74.196-11.952 11.96-18.48 24.86-18.48 38.314 0 62.138 139.01 112.512 310.49 112.512s310.49-50.372 310.49-112.512c0-13.454-6.528-26.356-18.48-38.314-43.252 43.274-157.66 74.196-292.01 74.196z" fill="#E58D23" /><path d="M844.272 362.492s89.386 38.206 80.054 91.986V721.236c0 27.614-22.386 50-50 50s-50-22.386-50-50v-189.292c-0.002-56.764-21.702-73.472-27.178-76.788-9.498-5.21-21.722-7.012-37.094-0.68l84.218-91.984z" fill="#FFD59A" /><path d="M895.676 704.966a12 12 0 0 1-12-12V477.334a12 12 0 0 1 24 0v215.632a12 12 0 0 1-12 12z" fill="#FFEACF" /><path d="M340.326 801.902m-30.668 0a30.668 30.668 0 1 0 61.336 0 30.668 30.668 0 1 0-61.336 0Z" fill="#FFA730" /><path d="M257.75 740.568m-30.668 0a30.668 30.668 0 1 0 61.336 0 30.668 30.668 0 1 0-61.336 0Z" fill="#FFA730" /><path d="M589.492 420.922c-151.838 0-278.202-39.498-305.158-91.684-29.17-11.132-52.136-24.418-66.852-39.142-11.952 11.958-18.48 24.86-18.48 38.314 0 62.138 139.01 112.512 310.49 112.512 82.946 0 158.292-11.788 213.986-30.99-40.564 7.044-86.002 10.99-133.986 10.99z" fill="#BF6C0D" /><path d="M544.236 415.932c18.502 0 33.5-14.998 33.5-33.5v-50.02a4 4 0 0 0-4-4h-59a4 4 0 0 0-4 4v50.02c0 18.502 14.998 33.5 33.5 33.5z" fill="#FFD59A" /><path d="M691.598 206.516c-36.822 23.434-106.368 39.238-186.106 39.238-79.74 0-149.286-15.804-186.106-39.238-17.758 11.302-27.912 24.378-27.912 38.314 0 42.83 95.818 77.552 214.016 77.552s214.016-34.72 214.016-77.552c0.002-13.936-10.15-27.012-27.908-38.314z" fill="#E58D23" /><path d="M605.492 302.382c-109.462 0-199.72-29.78-212.462-68.202-30.474-6.836-55.876-16.358-73.642-27.666-17.758 11.302-27.912 24.378-27.912 38.314 0 42.832 95.818 77.552 214.016 77.552 58.22 0 111.002-8.428 149.586-22.096a579.314 579.314 0 0 1-49.586 2.098z" fill="#BF6C0D" /><path d="M586.158 306.33c18.502 0 33.5-14.998 33.5-33.5v-66.906a4 4 0 0 0-4-4h-59a4 4 0 0 0-4 4v66.906c0 18.5 14.998 33.5 33.5 33.5z" fill="#FFD59A" /><path d="M686.326 715.342m-30.668 0a30.668 30.668 0 1 0 61.336 0 30.668 30.668 0 1 0-61.336 0Z" fill="#FFA730" /><path d="M782.658 630.332m-30.668 0a30.668 30.668 0 1 0 61.336 0 30.668 30.668 0 1 0-61.336 0Z" fill="#FFA730" /><path d="M426.984 190.034a84.796 22.756 0 1 0 169.592 0 84.796 22.756 0 1 0-169.592 0Z" fill="#E58D23" /></svg>