<?xml version="1.0" standalone="no"?><!DOCTYPE svg PUBLIC "-//W3C//DTD SVG 1.1//EN" "http://www.w3.org/Graphics/SVG/1.1/DTD/svg11.dtd"><svg class="icon" width="200px" height="200.00px" viewBox="0 0 1024 1024" version="1.1" xmlns="http://www.w3.org/2000/svg"><path d="M774.068 800.162c10.076-151.038-68.514-651.504-68.514-651.504H173.566S94.976 649.124 105.052 800.162v48.34c0 60.752 49.248 110 110 110H664.96c60.752 0 110-49.248 110-110v-48.34h-0.892z" fill="#F9BB32" /><path d="M710.91 54.814H168.212c-10.876 0-18.634 11.308-15.398 22.442l20.752 71.4h531.988l20.752-71.4c3.238-11.134-4.52-22.442-15.396-22.442z" fill="#BF6C0D" /><path d="M431.538 439.968m-138.562 0a138.562 138.562 0 1 0 277.124 0 138.562 138.562 0 1 0-277.124 0Z" fill="#FFEACF" /><path d="M581.566 836.104H294.802c-16.568 0-30-13.432-30-30v-101.648c0-16.568 13.432-30 30-30h286.764c16.568 0 30 13.432 30 30v101.648c0 16.568-13.43 30-30 30z" fill="#FFD59A" /><path d="M268.212 54.814h-100c-10.876 0-18.634 11.308-15.398 22.442l20.752 71.4h100l-20.752-71.4c-3.236-11.134 4.522-22.442 15.398-22.442z" fill="#A56021" /><path d="M205.054 848.502v-48.34c-10.076-151.038 68.514-651.504 68.514-651.504h-100S94.978 649.124 105.054 800.162v48.34c0 60.752 49.248 110 110 110h100c-60.752 0-110-49.248-110-110z" fill="#DB9C2E" /><path d="M735.839703 919.643673a135.006 95.068 44.999 1 0 134.444108-134.448802 135.006 95.068 44.999 1 0-134.444108 134.448802Z" fill="#DB9C2E" /><path d="M847.171213 879.103534a23.69 22.092 44.999 1 0 31.24226-31.243352 23.69 22.092 44.999 1 0-31.24226 31.243352Z" fill="#BF6C0D" /><path d="M896.788 897.83c-37.126 37.126-109.964 24.482-162.688-28.242-23.332-23.332-38.798-50.604-45.592-76.976-8.584 38.366 8.468 88.156 47.338 127.028 52.724 52.724 125.56 65.368 162.688 28.242 20.696-20.696 25.908-52.49 17.35-85.712-3.056 13.674-9.342 25.906-19.096 35.66z" fill="#BF6C0D" /><path d="M780.464 781.142c28.794 28.792 32.878 70.356 33.042 72.162 4.234 68.796 72.986 75.674 75.906 75.93 6.024 0.534 11.12 5.834 11.378 11.846 0.258 6.01-4.418 10.448-10.446 9.914-32.184-2.852-94.216-27.196-98.618-98.894-0.008-0.018-3.798-36.422-27.6-58.418-12.276-11.32-28.204-17.086-47.352-17.144-5.986-0.02-11.462-4.928-12.228-10.956-0.774-6.034 3.452-10.908 9.434-10.89 25.312 0.08 46.81 8.144 63.906 23.972 0.88 0.812 1.74 1.64 2.578 2.478z" fill="#BF6C0D" /><path d="M578.914 823.496a135.006 95.068 90 1 0 190.136 0 135.006 95.068 90 1 0-190.136 0Z" fill="#A56021" /><path d="M686.304 873.554a23.69 22.092 90 1 0 44.184 0 23.69 22.092 90 1 0-44.184 0Z" fill="#8C4C17" /><path d="M708.14 921.874c-52.504 0-95.068-60.444-95.068-135.006 0-32.998 8.348-63.216 22.192-86.668-33.198 21.058-56.35 68.324-56.35 123.296 0 74.562 42.562 135.006 95.068 135.006 29.268 0 55.436-18.798 72.876-48.338-11.83 7.504-24.926 11.71-38.718 11.71z" fill="#8C4C17" /><path d="M708.396 757.108c0.002 40.718-26.502 72.998-27.662 74.39-45.652 51.64-1.902 105.118-0.016 107.364 3.882 4.638 3.738 11.988-0.332 16.42-4.068 4.434-10.512 4.266-14.396-0.376-20.742-24.774-47.39-85.852 0.194-139.662 0.006-0.018 23.068-28.44 21.792-60.824-0.676-16.684-7.862-32.026-21.358-45.606-4.22-4.248-4.62-11.588-0.9-16.394 3.72-4.814 10.154-5.272 14.372-1.03 17.84 17.954 27.342 38.858 28.238 62.14 0.046 1.2 0.068 2.394 0.068 3.578z" fill="#8C4C17" /><path d="M727.042 651.092a12 12 0 0 1-11.988-11.642c-6.41-214.63-43.678-362.5-44.052-363.968a12 12 0 0 1 23.25-5.954c0.382 1.492 38.296 151.724 44.792 369.206a12 12 0 0 1-12.002 12.358z" fill="#FFC34C" /><path d="M390.72947 481.31265a82.492 58.088 44.999 1 0 82.147403-82.150271 82.492 58.088 44.999 1 0-82.147403 82.150271Z" fill="#A56021" /><path d="M489.072 467.986c-22.686 22.686-67.19 14.96-99.406-17.256-14.256-14.256-23.706-30.92-27.858-47.034-5.246 23.442 5.174 53.866 28.926 77.618 32.216 32.216 76.72 39.942 99.406 17.256 12.646-12.646 15.83-32.074 10.602-52.372-1.87 8.354-5.71 15.828-11.67 21.788z" fill="#8C4C17" /><path d="M417.996 396.686c17.594 17.592 20.09 42.99 20.19 44.094 2.588 42.036 44.596 46.238 46.38 46.394 3.68 0.326 6.794 3.564 6.952 7.238 0.158 3.672-2.698 6.384-6.382 6.058-19.666-1.742-57.568-16.618-60.258-60.426-0.004-0.01-2.322-22.254-16.864-35.694-7.5-6.916-17.234-10.44-28.932-10.476-3.658-0.012-7.004-3.01-7.472-6.694-0.472-3.688 2.11-6.666 5.764-6.654 15.466 0.05 28.602 4.976 39.048 14.648 0.536 0.494 1.062 1 1.574 1.512z" fill="#8C4C17" /><path d="M405.966 227.386m-30 0a30 30 0 1 0 60 0 30 30 0 1 0-60 0Z" fill="#DB9C2E" /><path d="M315.054 197.386m-30 0a30 30 0 1 0 60 0 30 30 0 1 0-60 0Z" fill="#DB9C2E" /></svg>