<?xml version="1.0" standalone="no"?><!DOCTYPE svg PUBLIC "-//W3C//DTD SVG 1.1//EN" "http://www.w3.org/Graphics/SVG/1.1/DTD/svg11.dtd"><svg class="icon" width="200px" height="200.00px" viewBox="0 0 1024 1024" version="1.1" xmlns="http://www.w3.org/2000/svg"><path d="M334.286 327.316c-16.77-15.216-49.686-2.69-75.34 27.884l0.028-0.33c-58.224 79.184-188.368 90.796-188.368 90.796l2.034 10.532h177.79l0.002-0.018c19.004 4.654 46.916-10.196 68.474-38.288 26.118-34.034 33.004-74.586 15.38-90.576z" fill="#FCDA4F" /><path d="M250.32 703.158H150.974a30.406 30.406 0 0 1-27.894-18.304l-10.528-24.264h176.188l-10.528 24.264a30.4 30.4 0 0 1-27.892 18.304z" fill="#EACF32" /><path d="M203.08 684.854l-10.526-24.264h-80l10.526 24.264a30.406 30.406 0 0 0 27.894 18.304h80a30.406 30.406 0 0 1-27.894-18.304z" fill="#CCC033" /><path d="M281.318 675.184h-161.34a21.89 21.89 0 0 1-21.442-17.478l-38.97-189.28h282.164l-38.97 189.28a21.892 21.892 0 0 1-21.442 17.478z" fill="#CCC033" /><path d="M347.14 468.428H51.722a12.832 12.832 0 0 1-12.832-12.832v-1.094a12.832 12.832 0 0 1 12.832-12.832h295.42a12.832 12.832 0 0 1 12.832 12.832v1.094a12.834 12.834 0 0 1-12.834 12.832z" fill="#EACF32" /><path d="M341.73 468.428H59.566l3.294 16 35.676 173.28a21.894 21.894 0 0 0 21.442 17.478h80a21.89 21.89 0 0 1-21.442-17.478l-33.202-161.264c-1.278-6.204 3.462-12.016 9.794-12.016h183.306l3.296-16z" fill="#99AF17" /><path d="M247.364 659.032c-6.704 0-11.888-0.928-13.056-1.156a12 12 0 0 1 4.556-23.564c6.248 1.172 17.514 1.25 21.86-2.308 0.62-0.508 1.91-1.564 1.958-5.322 0.084-6.628 5.56-11.934 12.152-11.846a12 12 0 0 1 11.848 12.152c-0.158 12.394-5.974 19.7-10.826 23.648-8.376 6.81-19.73 8.396-28.492 8.396zM285.624 603.578a12 12 0 0 1-11.798-14.268l14.146-73.564a12 12 0 0 1 23.566 4.532l-14.146 73.564a12 12 0 0 1-11.768 9.736z" fill="#EACF32" /><path d="M199.43 528.826m-30 0a30 30 0 1 0 60 0 30 30 0 1 0-60 0Z" fill="#99AF17" /><path d="M463.542 441.67h99.348a30.406 30.406 0 0 1 27.894 18.304l10.528 24.264h-176.188l10.528-24.264a30.4 30.4 0 0 1 27.89-18.304z" fill="#E58D23" /><path d="M543.542 441.67h-80a30.406 30.406 0 0 0-27.894 18.304l-10.526 24.264h80l10.526-24.264a30.408 30.408 0 0 1 27.894-18.304z" fill="#BF6C0D" /><path d="M432.546 469.644h161.34c10.39 0 19.348 7.302 21.442 17.478l38.97 189.28H372.134l38.97-189.28a21.892 21.892 0 0 1 21.442-17.478z" fill="#FFA730" /><path d="M366.722 676.402h295.42a12.832 12.832 0 0 1 12.832 12.832v1.094a12.832 12.832 0 0 1-12.832 12.832h-295.42a12.832 12.832 0 0 1-12.832-12.832v-1.094a12.834 12.834 0 0 1 12.832-12.832z" fill="#FFB74B" /><path d="M512.546 469.644h-80a21.892 21.892 0 0 0-21.442 17.478l-38.97 189.28h80l38.97-189.28a21.892 21.892 0 0 1 21.442-17.478z" fill="#E58D23" /><path d="M433.892 690.326v-1.094a12.832 12.832 0 0 1 12.832-12.832h-80a12.834 12.834 0 0 0-12.832 12.832v1.094a12.832 12.832 0 0 0 12.832 12.832h80a12.83 12.83 0 0 1-12.832-12.832z" fill="#FFA730" /><path d="M586.676 530.204a12 12 0 0 1-11.996-11.848c-0.046-3.758-1.338-4.814-1.958-5.322-4.348-3.558-15.616-3.48-21.868-2.306-6.498 1.22-12.782-3.04-14.022-9.536a11.984 11.984 0 0 1 9.472-14.03c2.696-0.526 26.77-4.782 41.546 7.242 4.852 3.948 10.668 11.254 10.826 23.648a12 12 0 0 1-11.848 12.152h-0.152zM611.742 639.03a12.002 12.002 0 0 1-11.77-9.736l-14.146-73.564a12 12 0 0 1 23.566-4.532l14.146 73.564a12 12 0 0 1-11.796 14.268z" fill="#FFB74B" /><path d="M500.524 636.932m-30 0a30 30 0 1 0 60 0 30 30 0 1 0-60 0Z" fill="#E58D23" /><path d="M875.46 703.158h-99.348a30.406 30.406 0 0 1-27.894-18.304l-10.526-24.264h176.188l-10.528 24.264a30.4 30.4 0 0 1-27.892 18.304z" fill="#FF9079" /><path d="M828.218 684.854l-10.528-24.264h-80l10.528 24.264a30.406 30.406 0 0 0 27.894 18.304h80a30.406 30.406 0 0 1-27.894-18.304z" fill="#FF624B" /><path d="M906.456 675.184h-161.34a21.89 21.89 0 0 1-21.442-17.478l-38.97-189.28h282.164l-38.97 189.28a21.892 21.892 0 0 1-21.442 17.478z" fill="#FF624B" /><path d="M972.278 468.428H676.86a12.832 12.832 0 0 1-12.832-12.832v-1.094a12.832 12.832 0 0 1 12.832-12.832h295.42a12.832 12.832 0 0 1 12.832 12.832v1.094a12.834 12.834 0 0 1-12.834 12.832z" fill="#FF9079" /><path d="M966.868 468.428H684.704l38.97 189.28a21.894 21.894 0 0 0 21.442 17.478h80a21.892 21.892 0 0 1-21.442-17.478l-32.378-157.264c-1.278-6.204 3.462-12.016 9.794-12.016h181.66l4.118-20z" fill="#FF4B34" /><path d="M744.028 455.596v-1.094a12.834 12.834 0 0 1 12.832-12.832h-80a12.834 12.834 0 0 0-12.832 12.832v1.094a12.834 12.834 0 0 0 12.832 12.832h80a12.832 12.832 0 0 1-12.832-12.832z" fill="#FF624B" /><path d="M873.364 659.032c-6.704 0-11.888-0.928-13.056-1.156a12 12 0 0 1 4.556-23.564c6.248 1.172 17.514 1.25 21.86-2.308 0.62-0.508 1.91-1.564 1.958-5.322a12.014 12.014 0 0 1 12.152-11.846 12 12 0 0 1 11.848 12.152c-0.158 12.394-5.974 19.7-10.826 23.648-8.376 6.81-19.73 8.396-28.492 8.396zM911.624 603.578a12 12 0 0 1-11.798-14.268l14.146-73.564a12 12 0 0 1 23.566 4.532l-14.146 73.564a12 12 0 0 1-11.768 9.736z" fill="#FF9079" /><path d="M818.984 529.472m-30 0a30 30 0 1 0 60 0 30 30 0 1 0-60 0Z" fill="#FF4B34" /><path d="M118.89 455.596v-1.094a12.832 12.832 0 0 1 12.832-12.832h-80a12.832 12.832 0 0 0-12.832 12.832v1.094a12.832 12.832 0 0 0 12.832 12.832h80a12.832 12.832 0 0 1-12.832-12.832z" fill="#CCC033" /></svg>