<?xml version="1.0" standalone="no"?><!DOCTYPE svg PUBLIC "-//W3C//DTD SVG 1.1//EN" "http://www.w3.org/Graphics/SVG/1.1/DTD/svg11.dtd"><svg class="icon" width="200px" height="200.00px" viewBox="0 0 1024 1024" version="1.1" xmlns="http://www.w3.org/2000/svg"><path d="M974.132 622.082c-39.204-61.938-74.652-91.68-88.558-101.892a57.676 57.676 0 0 0-5.298-3.682c-0.612-0.394-0.936-0.588-0.936-0.588-63.358-48.176-127.52-49.124-127.52-49.124-43.906-7.01-87.05 7.406-96.362 32.202-0.422 1.122-0.74 2.246-1.01 3.372l-0.242-0.038-35.492 94.498 0.038 0.006c-16.008 46.132 5.258 88.564 48.378 95.45 8.63 1.378 17.49 1.206 26.296-0.28l-0.008 0.022s114.718-16.074 195.954 14.674l0.878-0.872c4.064 1.848 8.552 3.188 13.424 3.912 30.07 4.472 63.164-15.838 73.92-45.366 5.724-15.72 3.966-30.876-3.462-42.294z" fill="#A56021" /><path d="M974.13 622.082a598.84 598.84 0 0 0-3.036-4.736c-14.42 22.238-42 36.17-67.42 32.39a50.124 50.124 0 0 1-13.424-3.912l-0.878 0.874c-21.5-8.138-45.346-12.994-68.79-15.74a140.666 140.666 0 0 0 9.844-23.398l0.054 0.016 30.108-104.588c-56.664-35.404-108.768-36.192-108.768-36.192-43.906-7.01-87.05 7.406-96.362 32.202a28.28 28.28 0 0 0-1.01 3.372l-0.242-0.038-35.492 94.496 0.038 0.006a103.76 103.76 0 0 0-1.244 3.856c-0.116 0.38-0.224 0.76-0.336 1.142a98.24 98.24 0 0 0-0.784 2.858c-0.096 0.37-0.196 0.74-0.286 1.108-0.302 1.224-0.58 2.446-0.83 3.66-0.074 0.364-0.136 0.724-0.206 1.086a87.234 87.234 0 0 0-0.994 6.354c-0.062 0.52-0.132 1.04-0.186 1.556a85.22 85.22 0 0 0-0.262 3.148c-0.044 0.666-0.07 1.326-0.096 1.986a88.282 88.282 0 0 0-0.078 3.588c0 0.326 0.01 0.646 0.014 0.97 0.022 1.64 0.088 3.264 0.208 4.87l0.012 0.184c0.066 0.854 0.15 1.7 0.244 2.544l0.062 0.542c0.322 2.712 0.782 5.368 1.384 7.956v0.002c5.79 24.918 24.348 43.666 51.756 48.042 3.564 0.57 7.17 0.86 10.794 0.916l0.448 0.004c1.594 0.016 3.19-0.004 4.79-0.084l0.052-0.002a86.848 86.848 0 0 0 5.622-0.476c1.53-0.178 3.06-0.38 4.588-0.638l-0.008 0.022 0.086-0.012h0.004c1.798-0.246 30.764-4.132 69.266-4.184 38.534-0.052 86.618 3.738 126.598 18.87l0.878-0.874c4.064 1.848 8.552 3.188 13.424 3.912 30.07 4.472 63.164-15.838 73.92-45.366 5.726-15.718 3.968-30.874-3.462-42.292z" fill="#8C4C17" /><path d="M831.68 464.458c10.442-36.274-32.336-80.43-95.548-98.628-63.212-18.196-122.92-3.542-133.362 32.732a40.052 40.052 0 0 0-1.056 4.976l-0.348-0.1-39.796 138.244 0.054 0.016c-17.554 67.714 17.468 136.136 79.548 154.008 62.08 17.87 128.12-21.46 149.254-88.142l0.054 0.016 39.796-138.244-0.346-0.1c0.668-1.554 1.276-3.136 1.75-4.778z" fill="#BF6C0D" /><path d="M677.312 642.784c25.308-24.412 41.296-57.568 42.418-94.28h0.07v-155.498h-0.448c0.266-1.814 0.448-3.638 0.448-5.484 0-9.734-3.802-19.018-10.642-27.528-40.634-5.944-76.816 1.854-95.2 20.116l-0.008 0.008a48.76 48.76 0 0 0-1.664 1.75c-0.114 0.126-0.234 0.25-0.346 0.376a47.04 47.04 0 0 0-1.4 1.652c-0.158 0.196-0.318 0.39-0.474 0.588a44.248 44.248 0 0 0-4.096 6.248c-0.218 0.408-0.42 0.822-0.624 1.236-0.206 0.42-0.42 0.838-0.612 1.266-0.236 0.524-0.448 1.06-0.662 1.594-0.134 0.338-0.282 0.672-0.408 1.014-0.328 0.892-0.63 1.798-0.894 2.718a40.052 40.052 0 0 0-1.056 4.976l-0.348-0.1-39.796 138.244 0.054 0.016a141.95 141.95 0 0 0-1.37 5.828c-0.132 0.614-0.246 1.226-0.37 1.838a143.266 143.266 0 0 0-1.098 6.122 140.694 140.694 0 0 0-0.552 3.932c-0.084 0.652-0.172 1.304-0.246 1.956-0.18 1.606-0.33 3.208-0.454 4.81-0.026 0.328-0.064 0.656-0.086 0.982a137.556 137.556 0 0 0-0.28 5.714c-0.018 0.584-0.016 1.166-0.026 1.748a139.648 139.648 0 0 0-0.014 3.988 139.128 139.128 0 0 0 0.2 5.784c0.038 0.702 0.074 1.402 0.124 2.1 0.094 1.338 0.216 2.668 0.348 3.996 0.054 0.542 0.096 1.088 0.156 1.628 0.204 1.81 0.444 3.61 0.718 5.4 0.09 0.586 0.2 1.166 0.298 1.75 0.208 1.238 0.424 2.474 0.664 3.704 0.146 0.738 0.304 1.472 0.46 2.208 0.23 1.076 0.472 2.146 0.728 3.21 0.182 0.758 0.364 1.512 0.56 2.264 0.28 1.08 0.58 2.152 0.886 3.22 0.198 0.694 0.386 1.392 0.596 2.082 0.5 1.648 1.028 3.284 1.592 4.904 0.22 0.634 0.466 1.256 0.696 1.886 0.386 1.056 0.774 2.11 1.186 3.152 0.306 0.776 0.63 1.542 0.95 2.308a123.66 123.66 0 0 0 2.212 5.002c0.398 0.846 0.81 1.684 1.226 2.522 0.382 0.768 0.758 1.54 1.156 2.3 0.478 0.914 0.98 1.812 1.48 2.714 0.68 1.228 1.382 2.442 2.102 3.642 0.49 0.818 0.978 1.64 1.486 2.444 0.49 0.776 1 1.536 1.506 2.298 0.462 0.696 0.926 1.39 1.402 2.076a115.728 115.728 0 0 0 3.082 4.232c0.576 0.758 1.152 1.516 1.746 2.258 0.49 0.612 0.996 1.21 1.498 1.812a117.12 117.12 0 0 0 3.528 4.046c0.492 0.538 0.974 1.086 1.476 1.616 0.678 0.714 1.376 1.406 2.072 2.104 0.532 0.532 1.06 1.066 1.602 1.586a114.48 114.48 0 0 0 3.832 3.52c0.744 0.654 1.488 1.304 2.25 1.938 0.564 0.47 1.142 0.926 1.716 1.386a111.734 111.734 0 0 0 5.94 4.466c0.064 0.044 0.126 0.092 0.188 0.138a109.988 109.988 0 0 0 32.38 15.396c62.08 17.872 128.12-21.46 149.256-88.142l0.054 0.016 6.704-23.292c-26.538 41.85-73.27 65.502-119.872 58.496z" fill="#A56021" /><path d="M52.918 589.424c46.124-56.974 84.782-82.402 99.778-90.932a58.138 58.138 0 0 1 5.688-3.042c0.652-0.32 0.998-0.476 0.998-0.476 68.518-40.5 132.358-34 132.358-34 44.424-1.87 85.602 17.454 91.976 43.162 0.288 1.164 0.474 2.318 0.612 3.466l0.244-0.01 24.29 97.976-0.038 0.002c10.548 47.678-15.496 87.356-59.124 89.194-8.73 0.368-17.512-0.83-26.086-3.328l0.006 0.022s-112.078-29.272-196.334-8.156l-0.77-0.968c-4.252 1.364-8.864 2.174-13.788 2.328-30.384 0.954-60.9-23.058-68.158-53.634-3.86-16.276-0.354-31.126 8.348-41.604z" fill="#FFC34C" /><path d="M409.702 634.76c-8.73 0.368-17.512-0.832-26.084-3.328l0.006 0.022s-112.078-29.272-196.334-8.156l-0.77-0.968c-4.252 1.364-8.864 2.174-13.788 2.328-30.384 0.954-60.9-23.058-68.158-53.634-3.862-16.272-0.358-31.124 8.346-41.602a538.788 538.788 0 0 1 6.06-7.342c-18.07 14.682-40.952 36.33-66.06 67.342-8.704 10.478-12.208 25.33-8.346 41.602 7.258 30.576 37.774 54.588 68.158 53.634 4.924-0.154 9.536-0.964 13.788-2.328l0.77 0.968c84.254-21.116 196.334 8.156 196.334 8.156l-0.006-0.022c8.572 2.498 17.354 3.696 26.084 3.328 34.322-1.446 57.75-26.318 61.05-60.074-0.352 0.02-0.696 0.06-1.05 0.074z" fill="#F9BB32" /><path d="M196.42 464.458c-10.442-36.274 32.336-80.43 95.548-98.628 63.212-18.196 122.92-3.542 133.362 32.732 0.472 1.642 0.798 3.304 1.056 4.976l0.348-0.1 39.796 138.244-0.054 0.016c17.554 67.714-17.468 136.136-79.548 154.008-62.08 17.87-128.12-21.46-149.254-88.142l-0.054 0.016-39.796-138.244 0.346-0.1a40.668 40.668 0 0 1-1.75-4.778z" fill="#F9BB32" /><path d="M366.3 387.524c0-40.802 66.15-73.878 147.75-73.878s147.75 33.076 147.75 73.878c0 1.846-0.182 3.672-0.448 5.484h0.448v155.498h-0.07c-2.312 75.586-67.542 136.186-147.682 136.186-80.14 0-145.37-60.602-147.682-136.186h-0.07v-155.498h0.448a38.286 38.286 0 0 1-0.444-5.484z" fill="#DB9C2E" /><path d="M406.928 635.704c-62.08 17.872-128.12-21.46-149.254-88.142l-0.054 0.016-39.796-138.244 0.346-0.1c-0.25-0.578-0.478-1.166-0.706-1.752-17.888 18.068-26.352 38.538-21.044 56.976 0.472 1.642 1.08 3.224 1.75 4.776l-0.346 0.1 39.796 138.244 0.054-0.016c21.134 66.682 87.174 106.014 149.254 88.142 47.828-13.768 79.566-57.552 83.602-107.89-14.664 22.728-36.562 40.106-63.602 47.89z" fill="#DB9C2E" /><path d="M574.05 624.692c-80.14 0-145.37-60.6-147.682-136.186h-0.07v-155.498h0.448a38.906 38.906 0 0 1-0.422-4.926c-36.406 13.456-60.026 35.066-60.026 59.442 0 1.846 0.182 3.67 0.448 5.484h-0.448v155.498h0.07c2.312 75.586 67.542 136.186 147.682 136.186 58.028 0 108.218-31.784 132.386-78.014-21.396 11.45-46.076 18.014-72.386 18.014z" fill="#BF6C0D" /><path d="M624.014 551.242a12 12 0 0 1-11.964-13.102c12.874-139.764-31.724-169.506-32.178-169.79l0.25 0.146 11.754-20.924c6.018 3.38 58.374 37.502 44.072 192.77a12 12 0 0 1-11.934 10.9z" fill="#F9BB32" /><path d="M788.4 518.39a12 12 0 0 1-11.694-14.728c15.264-65.44-15.454-74.826-15.77-74.904a12 12 0 1 1 5.66-23.322c2.226 0.54 54.336 14.268 33.48 103.678a12.004 12.004 0 0 1-11.676 9.276z" fill="#E58D23" /><path d="M506.368 539.242m-30 0a30 30 0 1 0 60 0 30 30 0 1 0-60 0Z" fill="#BF6C0D" /><path d="M289.4 433.59m-30 0a30 30 0 1 0 60 0 30 30 0 1 0-60 0Z" fill="#DB9C2E" /></svg>