<?xml version="1.0" standalone="no"?><!DOCTYPE svg PUBLIC "-//W3C//DTD SVG 1.1//EN" "http://www.w3.org/Graphics/SVG/1.1/DTD/svg11.dtd"><svg class="icon" width="200px" height="200.00px" viewBox="0 0 1024 1024" version="1.1" xmlns="http://www.w3.org/2000/svg"><path d="M512 67.652c-245.406 0-444.348 198.94-444.348 444.348S266.594 956.348 512 956.348 956.348 757.408 956.348 512 757.406 67.652 512 67.652z m0 613.698c-93.38 0-169.35-75.97-169.35-169.35S418.62 342.65 512 342.65 681.35 418.62 681.35 512 605.38 681.35 512 681.35z" fill="#FFB74B" /><path d="M851.188 773.224h-10.062c-23.748 0-43-19.252-43-43v-182.076h96.062v182.076c0 23.75-19.252 43-43 43zM167.652 512c0-228.5 172.484-416.682 394.348-441.532a449.12 449.12 0 0 0-50-2.816c-245.406 0-444.348 198.94-444.348 444.348S266.594 956.348 512 956.348c16.908 0 33.584-0.978 50-2.816C340.136 928.682 167.652 740.5 167.652 512z" fill="#E58D23" /><path d="M556.934 951.606h-10.062c-23.748 0-43-19.252-43-43v-182.076h96.062v182.076c0 23.748-19.252 43-43 43zM362.576 895.872h-10.062c-23.748 0-43-19.252-43-43v-146.802h96.062v146.802c0 23.748-19.252 43-43 43z" fill="#E58D23" /><path d="M879.522 774.026h-10.062c-23.748 0-43-19.252-43-43V497.012h96.062v234.016c0 23.746-19.252 42.998-43 42.998z" fill="#CCC033" /><path d="M920.072 475.336c-13.996-213.956-192.48-383.752-409.914-383.752-211.94 0-386.872 161.33-408.538 367.628a213.104 213.104 0 0 0-2.302 31.012c0 116.874 94.746 211.62 211.62 211.62 36.202 0 103.294 6.444 108.566 22.084 28.804 85.438 121.416 131.348 206.854 102.544 47.92-16.156 83.396-52.388 100.238-96.166a211.934 211.934 0 0 0 54.028-10.69c102.834-34.672 161.476-140.648 139.448-244.28z m-409.914 196.436c-93.53 0-169.352-75.822-169.352-169.352s75.822-169.352 169.352-169.352 169.352 75.822 169.352 169.352-75.822 169.352-169.352 169.352z" fill="#CCC033" /><path d="M167.652 512c0-176.078 102.434-328.194 250.946-400.104C250.562 151.12 121.844 293.758 103.462 468.79a213.104 213.104 0 0 0-2.302 31.012c0 75.462 39.506 141.688 98.958 179.154C179.2 627.408 167.652 571.058 167.652 512z" fill="#99AF17" /><path d="M890.058 740.56a12 12 0 0 1-12-12v-83.326a12 12 0 0 1 24 0v83.326a12 12 0 0 1-12 12zM868.548 465.722a12 12 0 0 1-11.994-12.606c6.604-130.846-147.956-245.586-149.516-246.73a12 12 0 0 1-2.592-16.772 11.996 11.996 0 0 1 16.77-2.592c1.696 1.24 41.978 30.946 81.926 78.404 53.644 63.73 80.404 129.05 77.382 188.9a12 12 0 0 1-11.976 11.396zM342.698 404.366a12 12 0 0 1-11.058-16.654c0.458-1.088 11.49-26.924 36.546-51.342 23.372-22.778 63.782-48.612 123.554-42.36a12.002 12.002 0 0 1-2.498 23.872c-96.792-10.158-135.102 78.236-135.478 79.13a12 12 0 0 1-11.066 7.354z" fill="#EACF32" /><path d="M213.708 472.906m-29.068 0a29.068 29.068 0 1 0 58.136 0 29.068 29.068 0 1 0-58.136 0Z" fill="#99AF17" /><path d="M271.844 574.864m-29.068 0a29.068 29.068 0 1 0 58.136 0 29.068 29.068 0 1 0-58.136 0Z" fill="#99AF17" /><path d="M666.42 679.908m-29.068 0a29.068 29.068 0 1 0 58.136 0 29.068 29.068 0 1 0-58.136 0Z" fill="#99AF17" /><path d="M582.934 953.606h-10.062c-23.748 0-43-19.252-43-43v-187.478h96.062v187.478c0 23.748-19.252 43-43 43zM388.576 896.246h-10.062c-23.748 0-43-19.252-43-43v-151.358h96.062v151.358c0 23.748-19.252 43-43 43z" fill="#CCC033" /><path d="M761.596 580.844m-29.068 0a29.068 29.068 0 1 0 58.136 0 29.068 29.068 0 1 0-58.136 0Z" fill="#99AF17" /></svg>