<?xml version="1.0" standalone="no"?><!DOCTYPE svg PUBLIC "-//W3C//DTD SVG 1.1//EN" "http://www.w3.org/Graphics/SVG/1.1/DTD/svg11.dtd"><svg class="icon" width="200px" height="200.00px" viewBox="0 0 1024 1024" version="1.1" xmlns="http://www.w3.org/2000/svg"><path d="M768.402 248.78H255.598c-14.698 0-26.232 12.61-24.924 27.25l18.222 203.864a25.022 25.022 0 0 0 24.924 22.796h5.518l39.72 437.064c2.11 23.23 21.902 41.034 45.616 41.034H659.22c23.714 0 43.504-17.802 45.616-41.034l39.718-437.064h5.626a25.024 25.024 0 0 0 24.924-22.796l18.22-203.864c1.31-14.642-10.224-27.25-24.922-27.25z" fill="#FFEACF" /><path d="M420.178 939.752l-39.72-437.064h-5.518a25.02 25.02 0 0 1-24.922-22.796l-18.222-203.864c-1.308-14.64 10.224-27.25 24.922-27.25h-101.12c-14.698 0-26.232 12.61-24.922 27.25l18.222 203.864a25.022 25.022 0 0 0 24.922 22.796h5.518l39.72 437.064c2.11 23.23 21.902 41.034 45.614 41.034h101.12c-23.712 0-43.504-17.802-45.614-41.034z" fill="#FFD59A" /><path d="M360.78 947.422c-6.51 0-11.836-4.596-12.39-10.688l-41.374-455.27a13.346 13.346 0 0 0-13.29-12.138h-8.54a8.296 8.296 0 0 1-8.308-7.598l-11.28-126.204a4.956 4.956 0 0 1 1.292-3.822 4.96 4.96 0 0 1 3.694-1.628h475.05c1.92 0 3.138 1.02 3.694 1.628 0.556 0.608 1.462 1.912 1.292 3.824l-11.28 126.202a8.296 8.296 0 0 1-8.308 7.598h-8.648a13.346 13.346 0 0 0-13.29 12.138L667.72 936.734c-0.554 6.092-5.88 10.688-12.39 10.688H360.78z" fill="#BF6C0D" /><path d="M632.304 936.7a12.002 12.002 0 0 1-11.95-13.242l25.254-242.638a12.002 12.002 0 0 1 23.872 2.484l-25.254 242.638a12 12 0 0 1-11.922 10.758zM663.266 645.292a12.002 12.002 0 0 1-11.95-13.242l6.158-59.178c0.688-6.59 6.562-11.396 13.178-10.694a12.002 12.002 0 0 1 10.694 13.178l-6.158 59.178a12.002 12.002 0 0 1-11.922 10.758z" fill="#E58D23" /><path d="M266.89 331.702a4.966 4.966 0 0 0-1.292 3.822l11.28 126.204a8.296 8.296 0 0 0 8.308 7.598h8.54a13.346 13.346 0 0 1 13.29 12.138l41.374 455.27c0.554 6.092 5.878 10.688 12.388 10.688h60.808a44.406 44.406 0 0 1-1.41-7.67l-39.72-437.064h-5.518a25.02 25.02 0 0 1-24.922-22.796l-13.39-149.818h-66.044c-1.92 0-3.138 1.02-3.692 1.628z" fill="#A56021" /><path d="M510.45 418.886l-89.8 52.132c-14.33 8.318-32.688 3.446-41.006-10.884l-51.12-88.058c-8.318-14.33-3.446-32.688 10.884-41.006l89.802-52.132c14.33-8.318 32.688-3.446 41.006 10.884l51.12 88.058c8.316 14.33 3.444 32.688-10.886 41.006z" fill="#FFA730" /><path d="M440.004 431.206l-56.428-97.2c-6.852-11.804-2.72-26.998 9.232-33.938l-57.708 33.502c-11.952 6.938-16.084 22.132-9.232 33.938l56.428 97.2c6.852 11.804 22.098 15.75 34.048 8.812l57.708-33.502c-11.95 6.938-27.196 2.992-34.048-8.812z" fill="#E58D23" /><path d="M456.234 910.014l-76.452-70.264c-12.2-11.212-13-30.19-1.788-42.388l70.264-76.452c11.212-12.2 30.19-13 42.388-1.788l76.452 70.264c12.2 11.212 13 30.19 1.788 42.388l-70.264 76.452c-11.212 12.198-30.19 12.998-42.388 1.788z" fill="#FFA730" /><path d="M423.754 846.178l77-83.782c9.352-10.176 25.18-10.842 35.356-1.492l-49.13-45.152c-10.176-9.352-26.004-8.684-35.356 1.492l-77 83.782c-9.352 10.176-8.684 26.004 1.492 35.356l49.13 45.152c-10.176-9.35-10.844-25.18-1.492-35.356z" fill="#E58D23" /><path d="M493.582 330.074l-23.2-39.962c-8.412-14.49-26.976-19.416-41.466-11.006l-87.794 50.966h152.46z" fill="#FFB74B" /><path d="M392.8 300.074l-51.678 30h40.64c-4.03-11.058 0.382-23.808 11.038-30z" fill="#FFA730" /><path d="M425.104 523.64m-29.068 0a29.068 29.068 0 1 0 58.136 0 29.068 29.068 0 1 0-58.136 0Z" fill="#A56021" /><path d="M512 880.358c-14.92 0-27.014-12.094-27.014-27.014V70.228c0-14.92 12.094-27.014 27.014-27.014s27.014 12.094 27.014 27.014v783.118c0 14.918-12.094 27.012-27.014 27.012z" fill="#FF9079" /><path d="M513.422 853.346V70.228c0-9.696 5.124-18.172 12.796-22.938A26.848 26.848 0 0 0 512 43.214c-14.92 0-27.014 12.094-27.014 27.014v783.118c0 14.92 12.094 27.014 27.014 27.014 5.224 0 10.084-1.508 14.218-4.076-7.672-4.766-12.796-13.244-12.796-22.938z" fill="#FF624B" /><path d="M572.89 678.042l-102.426-17.06c-16.344-2.722-27.386-18.178-24.664-34.522l17.06-102.426c2.722-16.344 18.178-27.386 34.522-24.664l102.426 17.06c16.344 2.722 27.386 18.178 24.664 34.522l-17.06 102.426c-2.722 16.344-18.178 27.386-34.522 24.664z" fill="#FFA730" /><path d="M510.804 642.334l18.694-112.246c2.27-13.632 15.162-22.842 28.794-20.572l-65.82-10.962c-13.632-2.27-26.524 6.94-28.794 20.572l-18.694 112.246c-2.27 13.632 6.94 26.524 20.572 28.794l65.82 10.962c-13.632-2.27-22.842-15.162-20.572-28.794z" fill="#E58D23" /></svg>