<?xml version="1.0" standalone="no"?><!DOCTYPE svg PUBLIC "-//W3C//DTD SVG 1.1//EN" "http://www.w3.org/Graphics/SVG/1.1/DTD/svg11.dtd"><svg class="icon" width="200px" height="200.00px" viewBox="0 0 1024 1024" version="1.1" xmlns="http://www.w3.org/2000/svg"><path d="M770.89 406.974a219.832 219.832 0 0 0 3.594-39.56c0-132.082-117.518-239.154-262.484-239.154-144.966 0-262.484 107.074-262.484 239.154 0 13.478 1.242 26.69 3.594 39.56h517.78z" fill="#FFF4C1" /><path d="M512.602 890.436h-1.202c-14.92 0-27.014-12.094-27.014-27.014V61.68c0-14.92 12.094-27.014 27.014-27.014h1.202c14.92 0 27.014 12.094 27.014 27.014v801.742c-0.002 14.92-12.096 27.014-27.014 27.014z" fill="#FF9079" /><path d="M513.454 862.822V62.282c0-9.91 5.238-18.578 13.08-23.448A27.454 27.454 0 0 0 512 34.668c-15.252 0-27.614 12.364-27.614 27.614v800.54c0 15.252 12.364 27.614 27.614 27.614 5.34 0 10.308-1.542 14.534-4.166-7.842-4.87-13.08-13.538-13.08-23.448z" fill="#FF624B" /><path d="M655.316 316.924c16.848-42.044-4.406-83.286-19.988-105.638-6.698-9.608-22.4-12.828-34.258-6.974-6.514 3.216-10.54 8.666-11.18 14.65-5.706 53.324-153.132 51.668-153.132 51.668-77.924 0-140.878 49.902-139.028 110.902 1.72 56.752 60.516 103.324 133.364 105.578 51.616 1.596 97.26-18.74 122.904-49.988 18.744 18.02 47.914 29.194 80.376 27.922 49.918-1.958 90.158-33.83 91.876-72.724 1.586-35.852-28.956-66.334-70.934-75.396z" fill="#FCDA4F" /><path d="M319.73 425.53c-1.848-61 61.106-110.902 139.028-110.902 0 0 147.424 1.656 153.132-51.666 0.64-5.984 4.666-11.436 11.18-14.65 11.622-5.736 26.912-2.742 33.824 6.422-5.246-17.516-14.058-32.678-21.566-43.448-6.698-9.608-22.4-12.828-34.258-6.974-6.514 3.214-10.54 8.666-11.18 14.65-5.708 53.322-153.132 51.666-153.132 51.666-77.922 0-140.878 49.902-139.028 110.902 0.642 21.18 9.24 40.94 23.546 57.51a84.524 84.524 0 0 1-1.546-13.51z" fill="#EACF32" /><path d="M635.616 989.334H388.386c-22.164 0-41.192-16.184-45.306-38.534l-93.564-508.266h524.968L680.92 950.8c-4.114 22.35-23.142 38.534-45.304 38.534z" fill="#FFF4C1" /><path d="M437.126 950.798l-93.564-508.266h-94.046l93.564 508.266c4.114 22.352 23.142 38.534 45.306 38.534h94.046c-22.164 0-41.192-16.182-45.306-38.534z" fill="#FCE575" /><path d="M388.386 949.218c-2.786 0-5.246-2.39-5.852-5.682l-84.842-460.886h428.62l-84.842 460.886c-0.606 3.292-3.068 5.682-5.852 5.682H388.386z" fill="#CCC033" /><path d="M791.144 454.682H232.856c-11.046 0-20-8.954-20-20v-44.992c0-11.046 8.954-20 20-20h558.29c11.046 0 20 8.954 20 20v44.992c-0.002 11.046-8.956 20-20.002 20z" fill="#FFF4C1" /><path d="M297.69 373.92h428.62v112.96h-428.62z" fill="#EACF32" /><path d="M297.69 482.648l84.842 460.886c0.606 3.294 3.068 5.682 5.852 5.682h48.45l-85.888-466.568h-53.256z" fill="#99AF17" /><path d="M726.31 373.918h-428.62v80.764h1.034v-27.746c0-11.292 9.154-20.444 20.444-20.444h407.14v-32.574z" fill="#FCE575" /><path d="M343.562 442.534l-4.834-36.044h-41.038v80.39h54.036z" fill="#CCC033" /><path d="M298.724 426.936c0-11.292 9.154-20.444 20.444-20.444h491.976v-16.356c0-11.292-9.154-20.444-20.444-20.444h-557.4c-11.292 0-20.444 9.152-20.444 20.444v44.102c0 11.29 9.154 20.444 20.444 20.444h65.424v-27.746z" fill="#FCE575" /><path d="M743.028 450.114H316.41a12 12 0 0 1 0-24h426.618a12 12 0 0 1 0 24z" fill="#FFF4C1" /><path d="M642.49 666.6a11.996 11.996 0 0 1-11.814-14.174l9.386-50.99a11.986 11.986 0 0 1 13.974-9.628 11.996 11.996 0 0 1 9.628 13.972l-9.386 50.99a12.006 12.006 0 0 1-11.788 9.83zM600.592 894.204a11.996 11.996 0 0 1-11.814-14.174l34.306-186.364c1.2-6.516 7.46-10.842 13.974-9.628a11.996 11.996 0 0 1 9.628 13.972l-34.306 186.364a12.006 12.006 0 0 1-11.788 9.83z" fill="#EACF32" /><path d="M451.764 805.542m-30.668 0a30.668 30.668 0 1 0 61.336 0 30.668 30.668 0 1 0-61.336 0Z" fill="#99AF17" /><path d="M506.514 881.79m-30.668 0a30.668 30.668 0 1 0 61.336 0 30.668 30.668 0 1 0-61.336 0Z" fill="#99AF17" /><path d="M742.34 344.876a12 12 0 0 1-11.988-11.632c-1.846-60.44-62.198-101.452-62.808-101.858a12.01 12.01 0 0 1-3.33-16.634 11.992 11.992 0 0 1 16.616-3.352c2.91 1.93 71.28 48.126 73.508 121.11a12 12 0 0 1-11.998 12.366z" fill="#FCF9DE" /><path d="M331.296 387.858c0-132.082 117.518-239.154 262.484-239.154 9.382 0 18.646 0.458 27.772 1.332C588.208 136.064 551.106 128.26 512 128.26c-144.966 0-262.484 107.072-262.484 239.154 0 13.478 1.242 26.69 3.594 39.56h79.028a219.89 219.89 0 0 1-0.842-19.116z" fill="#FCE575" /></svg>