<?xml version="1.0" standalone="no"?><!DOCTYPE svg PUBLIC "-//W3C//DTD SVG 1.1//EN" "http://www.w3.org/Graphics/SVG/1.1/DTD/svg11.dtd"><svg class="icon" width="200px" height="200.00px" viewBox="0 0 1024 1024" version="1.1" xmlns="http://www.w3.org/2000/svg"><path d="M774.218 246.428V873.38h-172.582V246.428c0-47.656 38.634-86.29 86.29-86.29 47.658 0 86.292 38.634 86.292 86.29z" fill="#BF6C0D" /><path d="M726.278 169.128a85.914 85.914 0 0 0-38.352-8.99c-47.656 0-86.29 38.634-86.29 86.29V873.38h76.704V246.428c0-33.876 19.53-63.176 47.938-77.3z" fill="#A56021" /><path d="M754.238 876.37v-25.082c0-48.016-30.906-86.942-69.032-86.942s-69.032 38.926-69.032 86.942v25.082h138.064z" fill="#8C4C17" /><path d="M626.582 886.794c5.016 0 8.658-4.726 7.414-9.584a76.308 76.308 0 0 1-2.366-18.944c0-36.38 25.254-65.976 56.296-65.976 31.042 0 56.296 29.596 56.296 65.976 0 6.582-0.828 12.942-2.366 18.944-1.246 4.858 2.398 9.584 7.414 9.584h16.59c3.658 0 6.844-2.572 7.53-6.164 1.374-7.2 2.108-14.68 2.108-22.364 0-56.682-39.208-102.63-87.572-102.63-48.364 0-87.572 45.948-87.572 102.63 0 7.684 0.736 15.166 2.108 22.364 0.686 3.592 3.872 6.164 7.53 6.164h16.59zM749.126 391.842a12 12 0 0 1-12-12v-54.468a12 12 0 0 1 24 0v54.468a12 12 0 0 1-12 12zM749.126 719.316a12 12 0 0 1-12-12V431.834a12 12 0 0 1 24 0v275.482a12 12 0 0 1-12 12z" fill="#E58D23" /><path d="M726.278 236.316m-30 0a30 30 0 1 0 60 0 30 30 0 1 0-60 0Z" fill="#A56021" /><path d="M415.528 311.098m-173.892 0a173.892 173.892 0 1 0 347.784 0 173.892 173.892 0 1 0-347.784 0Z" fill="#FFA730" /><path d="M415.528 467.686c-86.342 0-156.588-70.246-156.588-156.588s70.246-156.588 156.588-156.588c86.344 0 156.59 70.246 156.59 156.588s-70.246 156.588-156.59 156.588z" fill="#FFB74B" /><path d="M417.416 311.442m-65.086 0a65.086 65.086 0 1 0 130.172 0 65.086 65.086 0 1 0-130.172 0Z" fill="#FFD551" /><path d="M560.264 323.442H274.566a12 12 0 0 1 0-24h285.698a12 12 0 0 1 0 24z" fill="#FFD551" /><path d="M518.424 424.452a11.968 11.968 0 0 1-8.486-3.514l-202.02-202.02a12 12 0 0 1 16.97-16.97l202.02 202.02a12 12 0 0 1-8.484 20.484z" fill="#FFD551" /><path d="M417.416 466.292a12 12 0 0 1-12-12V168.592a12 12 0 0 1 24 0v285.698a12.002 12.002 0 0 1-12 12.002z" fill="#FFD551" /><path d="M316.406 424.452a12 12 0 0 1-8.486-20.484l202.02-202.02a12 12 0 0 1 16.97 16.97l-202.02 202.02a11.964 11.964 0 0 1-8.484 3.514z" fill="#FFD551" /><path d="M945.636 360.662L502.314 803.984l-122.034-122.034 443.322-443.322c33.698-33.698 88.334-33.698 122.034 0 33.698 33.698 33.698 88.334 0 122.034z" fill="#BF6C0D" /><path d="M966.396 272.104a85.924 85.924 0 0 0-20.762-33.476c-33.698-33.698-88.334-33.698-122.032 0L380.28 681.95l54.238 54.238L877.84 292.866c23.954-23.956 58.484-30.862 88.556-20.762z" fill="#A56021" /><path d="M486.072 791.972l17.736-17.736c33.952-33.952 39.622-83.332 12.664-110.29-26.96-26.96-76.338-21.29-110.29 12.664l-17.736 17.736 97.626 97.626z" fill="#8C4C17" /><path d="M388.434 709.076c3.546 3.546 9.464 2.782 12.018-1.534a76.21 76.21 0 0 1 11.724-15.068c25.724-25.724 64.51-28.794 86.46-6.844 21.95 21.95 18.88 60.736-6.844 86.46a76.36 76.36 0 0 1-15.068 11.724c-4.316 2.554-5.082 8.472-1.534 12.018l11.73 11.73c2.586 2.586 6.658 3.022 9.684 0.966a119.21 119.21 0 0 0 17.304-14.324c40.08-40.08 44.846-100.294 10.648-134.492s-94.412-29.432-134.492 10.648a119.424 119.424 0 0 0-14.324 17.304c-2.056 3.024-1.62 7.098 0.966 9.684l11.728 11.728zM595.996 668.816a12 12 0 0 1-8.486-20.484l194.796-194.796a12 12 0 0 1 16.97 16.97l-194.796 194.796a11.96 11.96 0 0 1-8.484 3.514z" fill="#E58D23" /><path d="M915.9 318.052m-30 0a30 30 0 1 0 60 0 30 30 0 1 0-60 0Z" fill="#A56021" /><path d="M324.41 534.896c30.81-34.566 45.48-70.848 33.038-85.028-13.38-15.25-53.228 0.62-90.576 35.47-1.492-49.408-17.338-88.904-37.068-90.192-19.522-1.276-35.98 35.316-38.716 83.706-34.566-30.81-70.848-45.48-85.03-33.038-15.26 13.388 0.638 53.276 35.534 90.644-48.598 1.804-87.196 17.502-88.47 36.998-1.276 19.522 35.316 35.98 83.704 38.716-30.81 34.566-45.48 70.848-33.038 85.028 13.38 15.25 53.228-0.62 90.576-35.47 1.492 49.408 17.338 88.902 37.068 90.192 19.522 1.276 35.98-35.316 38.716-83.706 34.566 30.81 70.848 45.48 85.03 33.038 15.26-13.388-0.638-53.276-35.534-90.644 48.598-1.804 87.196-17.502 88.47-37 1.276-19.52-35.316-35.98-83.704-38.714z" fill="#8C4C17" /><path d="M232.384 732.116c-5.942-5.24-17.59-29.18-18.85-70.964l-1.278-42.342-30.972 28.902c-26.59 24.812-50.96 36.112-62.348 36.112-0.158 0-0.306-0.002-0.442-0.006-0.284-6.972 6.13-29.13 32.652-58.886l26.44-29.662-39.672-2.242c-40.012-2.264-60.308-13.492-64.978-18.616 5.17-5.822 28.568-17.276 69.372-18.792l41.964-1.558-28.662-30.692c-28.058-30.046-36.654-54.882-36.242-62.796 0.148-0.006 0.308-0.008 0.482-0.008 10.552 0 33.352 10.202 58.482 32.602l29.662 26.44 2.242-39.672c2.264-40.024 13.498-60.318 18.62-64.982 5.942 5.24 17.59 29.182 18.85 70.964l1.28 42.342 30.97-28.902c26.59-24.812 50.96-36.112 62.348-36.112 0.158 0 0.306 0.002 0.442 0.006 0.284 6.972-6.13 29.13-32.652 58.886l-26.44 29.662 39.672 2.242c40.012 2.262 60.308 13.492 64.978 18.616-5.17 5.822-28.568 17.276-69.372 18.792l-41.964 1.558 28.662 30.692c28.058 30.046 36.654 54.882 36.242 62.796a20.42 20.42 0 0 1-0.48 0.008c-10.552 0-33.356-10.204-58.484-32.602l-29.662-26.44-2.242 39.672c-2.262 40.024-13.498 60.318-18.62 64.982z" fill="#A56021" /><path d="M272.484 556.286c13.752-15.428 20.3-31.624 14.748-37.954-5.972-6.808-23.76 0.276-40.43 15.832-0.666-22.054-7.74-39.684-16.546-40.258-8.714-0.57-16.06 15.764-17.282 37.364-15.428-13.752-31.624-20.302-37.954-14.748-6.812 5.976 0.286 23.78 15.862 40.46-21.692 0.806-38.922 7.812-39.49 16.516-0.57 8.714 15.764 16.06 37.364 17.282-13.752 15.428-20.3 31.624-14.748 37.954 5.972 6.808 23.76-0.276 40.43-15.832 0.666 22.054 7.74 39.684 16.546 40.258 8.714 0.57 16.06-15.764 17.282-37.364 15.428 13.752 31.624 20.302 37.954 14.748 6.812-5.976-0.286-23.78-15.86-40.46 21.692-0.806 38.922-7.812 39.49-16.516 0.566-8.714-15.766-16.06-37.366-17.282z" fill="#8C4C17" /></svg>