<?xml version="1.0" standalone="no"?><!DOCTYPE svg PUBLIC "-//W3C//DTD SVG 1.1//EN" "http://www.w3.org/Graphics/SVG/1.1/DTD/svg11.dtd"><svg class="icon" width="200px" height="200.00px" viewBox="0 0 1024 1024" version="1.1" xmlns="http://www.w3.org/2000/svg"><path d="M893.748 631.68V392.336c-455.056-82.476-774.724 0-774.724 0v240.422h4.432c39.548 9.346 343.262 75.124 764.182 0h6.11v-1.078z" fill="#EACF32" /><path d="M225.962 521.262a286.038 108.43 0 1 0 572.076 0 286.038 108.43 0 1 0-572.076 0Z" fill="#FCF9DE" /><path d="M973.976 647.976V377.118c0-6.122-7.208-10.294-13.804-7.99l-66.426 23.208v240.422l66.426 23.208c6.596 2.304 13.804-1.87 13.804-7.99zM50.024 647.976V377.118c0-6.122 6.2-10.294 11.872-7.99l57.128 23.208v240.422l-57.128 23.208c-5.674 2.304-11.872-1.87-11.872-7.99z" fill="#F9BB32" /><path d="M322.764 574.718c-10.704 0-19.13-2.38-25.282-7.142-5.184-3.958-7.776-8.532-7.776-13.714 0-2.654 0.8-4.856 2.402-6.606 1.602-1.748 3.812-2.624 6.636-2.624 3.792 0 6.574 1.94 8.344 5.816 2.4 5.182 7.838 7.774 16.306 7.774 7.246 0 14.262-1.58 21.046-4.74 7.038-3.244 10.556-6.804 10.556-10.682 0-5.31-2.192-8.806-6.574-10.492-3.12-1.222-9.376-1.938-18.772-2.148-7.292-0.168-13.822-1.54-19.594-4.11-7.796-3.496-11.63-8.512-11.504-15.042 0.126-8.216 4.508-15.748 13.146-22.596 8.636-6.848 18.16-10.272 28.568-10.272 4.128 0 9.228 0.95 15.296 2.844 7.542 2.362 11.314 5.078 11.314 8.154 0 2.192-0.76 4.13-2.276 5.814-1.688 1.896-3.858 2.846-6.512 2.846-1.98 0-4.94-0.422-8.878-1.266-3.942-0.842-6.922-1.264-8.946-1.264-5.436 0.042-10.598 1.35-15.484 3.92-5.056 2.612-7.584 5.458-7.584 8.532 0 1.602 0.768 2.918 2.306 3.952 1.538 1.034 3.844 1.76 6.92 2.18l16.118 0.884c9.356 0.716 16.75 3.352 22.186 7.902 5.982 5.054 8.976 12.05 8.976 20.984 0 10.872-6.196 19.11-18.584 24.712-9.432 4.258-20.218 6.384-32.354 6.384zM449.366 559.93a41.612 41.612 0 0 1-11.126 10.428c-5.308 3.372-10.766 5.056-16.37 5.056-10.746 0-18.73-2.028-23.956-6.084-11.042-8.568-16.56-23.45-16.56-44.642 0-2.03 0.106-5.05 0.316-9.066 0.21-4.014 0.316-7.038 0.316-9.064 0-1.616 0.042-4.026 0.126-7.234 0.082-3.208 0.126-5.62 0.126-7.234 0-3.308 0.612-6.436 1.834-9.376 1.642-3.89 3.94-5.836 6.888-5.836a9.26 9.26 0 0 1 6.13 2.226c1.938 1.568 2.908 3.588 2.908 6.062 0 2.352-0.032 5.908-0.096 10.672-0.062 4.764-0.094 8.34-0.094 10.732 0 1.978-0.106 4.968-0.316 8.968s-0.316 6.99-0.316 8.97c0 6.39 0.758 12.33 2.276 17.814 1.77 6.558 4.362 11.136 7.776 13.734 1.77 1.36 5.982 2.082 12.64 2.164 11.124 0.168 18.624-9.312 22.5-28.444 2.024-9.9 3.036-23.806 3.036-41.714 0-2.36 0.696-4.634 2.086-6.826 1.896-2.908 4.592-4.362 8.09-4.362 2.866 0 5.014 1.052 6.448 3.16 1.096 1.558 1.642 3.288 1.642 5.184 0 16.644-0.78 29.624-2.338 38.934-2.36 14.372-7.014 26.298-13.966 35.778zM556.182 533.7c-2.866 12.556-8.638 22.608-17.318 30.148-8.806 7.586-19.13 11.376-30.97 11.376-11.208 0-19.616-2.96-25.218-8.88-5.604-5.918-8.406-14.798-8.406-26.64 0-10.788 2.654-21.848 7.964-33.184 5.308-11.334 12.134-20.52 20.478-27.556 5.856-4.93 12.134-7.394 18.834-7.394 4.088 0 9.65 1.474 16.688 4.424 8.342 3.498 12.514 7.226 12.514 11.188 0 2.276-0.864 4.308-2.592 6.1-1.726 1.792-3.856 2.686-6.382 2.686-1.264 0-4.056-1.19-8.376-3.57-4.32-2.38-8.27-3.572-11.852-3.572-3.792 0-8.912 4.088-15.358 12.262-9.398 11.882-14.096 24.756-14.096 38.62 0 7.038 1.032 11.82 3.098 14.348 2.19 2.654 6.424 3.982 12.704 3.982 6.448 0 12.116-1.834 17.004-5.5 5.182-3.876 9.016-9.522 11.502-16.938-9.776 0.758-18.288 2.76-25.536 6.004a9.452 9.452 0 0 1-3.918 0.884c-2.614 0-4.784-0.968-6.51-2.908-1.56-1.726-2.34-3.686-2.34-5.876 0-6.448 7.626-10.956 22.88-13.528 8.596-1.432 18.626-2.148 30.086-2.148 2.53 0 4.646 0.822 6.352 2.464 1.708 1.644 2.56 3.666 2.56 6.068 0 3.072-1.264 5.454-3.792 7.14zM638.792 572.76c-3.33-0.126-6.68-4.044-10.05-11.756-2.234-4.972-4.15-10.704-5.752-17.192-3.12 0.462-8.216 0.926-15.294 1.39-6.658 0.462-11.756 1.01-15.296 1.642-1.938 4.634-5.308 11.61-10.112 20.922-1.856 3.034-4.426 4.55-7.71 4.55-2.318 0-4.404-0.792-6.258-2.372-1.856-1.58-2.782-3.592-2.782-6.036 0-2.15 3.074-9.44 9.228-21.872-0.592-1.304-0.844-2.528-0.76-3.664 0.168-2.024 2.212-3.604 6.13-4.742 5.984-10.366 12.642-21.11 19.974-32.234 10.534-15.968 17.022-23.956 19.466-23.956 4.634 0 7.732 2.802 9.292 8.406a1647.742 1647.742 0 0 0 3.982 20.29c2.568 12.136 5.708 26.022 9.418 41.652 0.292 1.182 1.368 3.962 3.222 8.344 1.518 3.626 2.276 6.342 2.276 8.154 0 2.444-0.916 4.486-2.75 6.13-1.83 1.648-3.906 2.428-6.224 2.344z m-23.576-64.85a3395.8 3395.8 0 0 1-13.59 23.07c1.896-0.42 4.846-0.758 8.85-1.012 4.718-0.292 7.69-0.526 8.912-0.694a1369.6 1369.6 0 0 0-4.172-21.364zM725.636 571.624c-2.276 0-4.362-0.884-6.258-2.656-12.768-11.964-26.798-20.266-42.096-24.902 0.464 12.262 0.696 19.068 0.696 20.416 0 2.4-0.842 4.436-2.528 6.1s-3.792 2.496-6.32 2.496c-2.53 0-4.636-0.832-6.32-2.496-1.686-1.664-2.53-3.7-2.53-6.1 0-3.16 0.042-7.89 0.126-14.19 0.084-6.298 0.126-11.03 0.126-14.19l0.126-51.008c0-2.738 0.822-5.224 2.466-7.458 2.148-2.866 5.12-4.148 8.91-3.856 10.24 0.76 15.486 1.16 15.738 1.202 5.9 0.716 10.914 2.128 15.042 4.234 17.992 9.06 26.99 20.29 26.99 33.69 0 5.52-1.886 10.396-5.658 14.632-3.772 4.234-9.428 7.804-16.97 10.712 11.166 6.236 19.572 12.6 25.22 19.088 1.472 1.686 2.21 3.56 2.21 5.626 0 2.362-0.884 4.392-2.654 6.1s-3.872 2.56-6.316 2.56z m-40.514-79.514c-0.338-0.042-2.802-0.21-7.394-0.506v33.562c1.052 0.042 1.98 0.062 2.782 0.062 10.322 0 17.97-1.284 22.944-3.856a22.856 22.856 0 0 0 5.91-4.362c1.792-1.81 2.686-3.18 2.686-4.108 0-4.718-2.992-9.27-8.974-13.652-5.694-4.126-11.676-6.508-17.954-7.14z" fill="#FCDA4F" /><path d="M86.68 379.196l-24.786-10.07c-5.672-2.304-11.87 1.87-11.87 7.992v270.858c0 6.122 6.2 10.294 11.87 7.99l24.786-10.068V379.196z" fill="#DB9C2E" /><path d="M209.704 589.632h-4.432V375.996c-55.664 8.456-86.25 16.34-86.25 16.34v240.422h4.432c39.548 9.346 343.262 75.124 764.182 0h6.11v-30.276c-378.946 53.99-647.052-4.108-684.042-12.85z" fill="#CCC033" /><path d="M512 629.692c28.69 0 56.386-1.608 82.516-4.588-90.36 0.74-167.866-4.258-229.388-10.784 42.934 9.756 93.172 15.372 146.872 15.372z" fill="#FFF4C1" /><path d="M960.174 627.934l-66.426-23.208v28.032l66.426 23.208c6.594 2.304 13.802-1.868 13.802-7.99v-28.032c0 6.122-7.208 10.294-13.802 7.99z" fill="#DB9C2E" /><path d="M933.862 582.862a12 12 0 0 1-12-12v-158.03a12 12 0 0 1 24 0v158.03a12 12 0 0 1-12 12z" fill="#FFC34C" /><path d="M256.63 418.666m-30.668 0a30.668 30.668 0 1 0 61.336 0 30.668 30.668 0 1 0-61.336 0Z" fill="#CCC033" /></svg>