<?xml version="1.0" standalone="no"?><!DOCTYPE svg PUBLIC "-//W3C//DTD SVG 1.1//EN" "http://www.w3.org/Graphics/SVG/1.1/DTD/svg11.dtd"><svg class="icon" width="200px" height="200.00px" viewBox="0 0 1024 1024" version="1.1" xmlns="http://www.w3.org/2000/svg"><path d="M767.572 685.296H527.8c-20.386 0-36.91-16.526-36.91-36.91v-3.704c0-20.386 16.526-36.91 36.91-36.91h239.772c20.386 0 36.91 16.526 36.91 36.91v3.704c0 20.384-16.524 36.91-36.91 36.91zM767.572 762.82H527.8c-20.386 0-36.91-16.526-36.91-36.91v-3.704c0-20.386 16.526-36.91 36.91-36.91h239.772c20.386 0 36.91 16.526 36.91 36.91v3.704c0 20.384-16.524 36.91-36.91 36.91zM520.38 762.82h254.61c16.288 0 29.492 12.404 29.492 27.704v111.386c0 25.186-26.408 45.604-58.984 45.604h-195.628c-32.576 0-58.984-20.418-58.984-45.604v-111.386c0.002-15.3 13.206-27.704 29.494-27.704zM725.346 342.53v-85.402h-155.322v85.402l-71.594 102.438a41.816 41.816 0 0 0-7.542 23.958v116.044c0 12.594 13.204 22.802 29.492 22.802h254.61c16.288 0 29.492-10.21 29.492-22.802v-116.044a41.82 41.82 0 0 0-7.542-23.958l-71.594-102.438z" fill="#FFD59A" /><path d="M574.53 584.968v-116.044c0-8.57 2.632-16.934 7.542-23.956l71.594-102.438v-85.402h-83.64v85.402l-71.594 102.438a41.81 41.81 0 0 0-7.542 23.956v116.044c0 12.594 13.204 22.802 29.492 22.802h83.64c-16.288 0-29.492-10.208-29.492-22.802z" fill="#F9BB32" /><path d="M574.53 682.252v-0.344c0-21.312 17.278-38.59 38.59-38.59h191.208c-1.556-19.886-18.152-35.548-38.436-35.548H529.48c-21.314 0-38.59 17.278-38.59 38.59v0.344c0 21.314 17.278 38.59 38.59 38.59h45.204a38.236 38.236 0 0 1-0.154-3.042zM574.53 757.686v-0.344c0-21.314 17.278-38.59 38.59-38.59h190.982c-2.516-18.88-18.642-33.456-38.21-33.456H529.48c-21.314 0-38.59 17.278-38.59 38.59v0.344c0 21.312 17.278 38.59 38.59 38.59h45.43a38.794 38.794 0 0 1-0.38-5.134zM574.53 943.73v-111.386c0-15.3 13.204-27.704 29.492-27.704h200.462v-14.116c0-15.3-13.204-27.704-29.492-27.704H520.38c-16.288 0-29.492 12.404-29.492 27.704v111.386c0 25.186 26.408 45.604 58.984 45.604h24.876a35.426 35.426 0 0 1-0.218-3.784z" fill="#F9BB32" /><path d="M736.872 299.51h-178.374a16 16 0 0 1-16-16v-73.268a16 16 0 0 1 16-16h178.374a16 16 0 0 1 16 16v73.268a16 16 0 0 1-16 16z" fill="#DB9C2E" /><path d="M626.14 282.782v-71.812a16.728 16.728 0 0 1 16.728-16.728h-83.64a16.728 16.728 0 0 0-16.728 16.728v71.812a16.728 16.728 0 0 0 16.728 16.728h83.64a16.728 16.728 0 0 1-16.728-16.728z" fill="#BF6C0D" /><path d="M493.112 636.738H259.518c-22.092 0-40-17.908-40-40v-24.246c0-22.092 17.908-40 40-40h233.594c22.092 0 40 17.908 40 40v24.246c0 22.09-17.91 40-40 40zM493.112 740.984H259.518c-22.092 0-40-17.908-40-40v-24.246c0-22.092 17.908-40 40-40h233.594c22.092 0 40 17.908 40 40v24.246c0 22.09-17.91 40-40 40z" fill="#FFEACF" /><path d="M249.008 740.984H503.62c16.288 0 29.492 16.678 29.492 37.252v149.776c0 33.866-26.408 61.32-58.984 61.32H278.5c-32.576 0-58.984-27.454-58.984-61.32v-149.776c0.002-20.574 13.206-37.252 29.492-37.252zM452.368 172.742h0.212V100.178h-152.47V172.74h0.15l-80.742 155.346v173.742c0 16.934 13.204 30.66 29.492 30.66H503.62c16.288 0 29.492-13.728 29.492-30.66v-173.742l-80.744-155.344z" fill="#FFEACF" /><path d="M303.158 501.83v-173.742l80.742-155.346h-0.15V100.178h-83.64V172.74h0.15l-80.742 155.346v173.742c0 16.934 13.204 30.66 29.492 30.66h83.64c-16.288 0.004-29.492-13.724-29.492-30.658zM303.158 630.464V609.86c0-23.096 18.724-41.82 41.82-41.82h187.612c-3.034-20.112-20.34-35.548-41.3-35.548H261.338c-23.096 0-41.82 18.724-41.82 41.82v20.604c0 23.098 18.724 41.82 41.82 41.82h42.342a41.81 41.81 0 0 1-0.522-6.272zM303.158 730.528v-20.604c0-23.096 18.724-41.82 41.82-41.82h186.762c-4.65-18.026-20.97-31.366-40.45-31.366H261.338c-23.096 0-41.82 18.724-41.82 41.82v20.604c0 23.098 18.724 41.82 41.82 41.82h43.192a41.702 41.702 0 0 1-1.372-10.454zM303.158 969.832v-149.778c0-20.574 13.204-37.252 29.492-37.252h200.462v-4.568c0-20.574-13.204-37.252-29.492-37.252H249.008c-16.288 0-29.492 16.68-29.492 37.252v149.778c0 33.866 26.408 61.32 58.984 61.32h27.722a63.438 63.438 0 0 1-3.064-19.5z" fill="#FFD59A" /><path d="M465.502 139.934h-178.374a16 16 0 0 1-16-16V50.666a16 16 0 0 1 16-16h178.374a16 16 0 0 1 16 16v73.268a16 16 0 0 1-16 16z" fill="#F9BB32" /><path d="M354.768 123.206V51.396a16.728 16.728 0 0 1 16.728-16.728h-83.64a16.728 16.728 0 0 0-16.728 16.728v71.812a16.728 16.728 0 0 0 16.728 16.728h83.64a16.73 16.73 0 0 1-16.728-16.73z" fill="#DB9C2E" /><path d="M493.382 943.916a12 12 0 0 1-12-12V807.28a12 12 0 0 1 24 0v124.636a12 12 0 0 1-12 12zM493.382 480.924a12 12 0 0 1-12-12v-118.98l-19.578-34.904a12 12 0 0 1 20.932-11.74l21.112 37.638c1.006 1.792 1.534 3.814 1.534 5.87v122.116a12 12 0 0 1-12 12z" fill="#FCF9DE" /><path d="M771.286 565.834a12 12 0 0 1-12-12v-71.392l-16.412-24.722a12 12 0 1 1 19.994-13.274l18.414 27.738a11.996 11.996 0 0 1 2.002 6.636v75.014a11.998 11.998 0 0 1-11.998 12zM762.08 921.326a12 12 0 0 1-12-12v-80.188a12 12 0 0 1 24 0v80.188a12 12 0 0 1-12 12z" fill="#FFEACF" /><path d="M447.178 124.69a12 12 0 0 1-12-12V64.522a12 12 0 0 1 24 0v48.168a12 12 0 0 1-12 12z" fill="#FFD551" /><path d="M719.01 283.534a12 12 0 0 1-12-12v-43.658a12 12 0 0 1 24 0v43.658a12 12 0 0 1-12 12z" fill="#F9BB32" /><path d="M383.9 271.532m-31.366 0a31.366 31.366 0 1 0 62.732 0 31.366 31.366 0 1 0-62.732 0Z" fill="#FFD59A" /><path d="M364.216 843.596m-31.366 0a31.366 31.366 0 1 0 62.732 0 31.366 31.366 0 1 0-62.732 0Z" fill="#FFD59A" /><path d="M624.048 889.968m-31.366 0a31.366 31.366 0 1 0 62.732 0 31.366 31.366 0 1 0-62.732 0Z" fill="#F9BB32" /><path d="M655.414 492.402m-31.366 0a31.366 31.366 0 1 0 62.732 0 31.366 31.366 0 1 0-62.732 0Z" fill="#F9BB32" /></svg>