<svg t="1576653125858" class="icon" viewBox="0 0 1024 1024" version="1.1" xmlns="http://www.w3.org/2000/svg" p-id="2642" width="200" height="200" preserveAspectRatio="none"><path d="M150.1184 150.1184C250.2656 50.0736 370.8928 0 512 0c141.1072 0 261.7344 50.0736 361.8816 150.1184C973.9264 250.2656 1024 370.8928 1024 512c0 141.1072-50.0736 261.7344-150.1184 361.8816C773.7344 973.9264 653.1072 1024 512 1024c-141.1072 0-261.7344-50.0736-361.8816-150.1184C50.0736 773.7344 0 653.1072 0 512 0 370.8928 50.0736 250.2656 150.1184 150.1184zM512 41.8816c-85.2992 0-164.1472 20.8896-236.3392 62.7712C203.4688 146.432 146.432 203.4688 104.6528 275.6608 62.7712 347.8528 41.8816 426.7008 41.8816 512c0 129.6384 45.9776 240.4352 137.8304 332.288C271.5648 936.2432 382.3616 982.1184 512 982.1184s240.4352-45.9776 332.288-137.8304C936.2432 752.4352 982.1184 641.6384 982.1184 512c0-129.6384-45.9776-240.4352-137.8304-332.288S641.6384 41.8816 512 41.8816z" p-id="2643"></path></svg>